<svg width="20" height="20" viewBox="0 0 20 20" fill="none" xmlns="http://www.w3.org/2000/svg">
<path opacity="0.4" d="M18.4788 12.0741L18.4788 12.074L18.4741 12.0788C17.8428 12.7186 16.9088 13.1 15.75 13.1H15.25V13.6V15.41C15.25 15.6983 14.9309 15.8557 14.7107 15.7063L14.7108 15.7062L14.7054 15.7027L14.025 15.2537C14.0702 14.999 14.09 14.7361 14.09 14.47V10.4C14.09 9.2664 13.7099 8.28286 13.0086 7.58146C12.3072 6.88006 11.3236 6.5 10.19 6.5H3.5V4.25C3.5 3.08862 3.88494 2.15966 4.5223 1.5223C5.15966 0.884943 6.08862 0.5 7.25 0.5H15.75C16.9114 0.5 17.8403 0.884943 18.4777 1.5223C19.1151 2.15966 19.5 3.08862 19.5 4.25V9.34998C19.5 10.5088 19.1186 11.4428 18.4788 12.0741Z" fill="#6C768B" stroke="#6C768B"/>
<path d="M12.9798 15.3406L12.9773 15.3492L12.9751 15.3579C12.6665 16.5841 11.664 17.37 10.19 17.37H7.47H7.31882L7.19297 17.4538L4.17296 19.4638L4.17293 19.4637L4.16634 19.4683C4.06086 19.5409 3.89999 19.4728 3.89999 19.32V17.87V17.37H3.39999C2.493 17.37 1.77678 17.0697 1.29356 16.5864C0.799561 16.0925 0.5 15.3757 0.5 14.47V10.4C0.5 9.55535 0.760751 8.87643 1.19077 8.39395C1.61939 7.91302 2.2461 7.59348 3.04255 7.51822C3.17296 7.5082 3.28332 7.5 3.39999 7.5H10.19C11.0964 7.5 11.8128 7.79995 12.3014 8.28856C12.7901 8.77718 13.09 9.49365 13.09 10.4V14.47C13.09 14.7942 13.0538 15.0857 12.9798 15.3406Z" fill="#6C768B" stroke="#6C768B"/>
</svg>
