<svg width="74" height="74" viewBox="0 0 74 74" fill="none" xmlns="http://www.w3.org/2000/svg">
<g filter="url(#filter0_d_142_10197)">
<rect x="2" y="1.5" width="70" height="69" rx="10" fill="#2A2D64"/>
<path d="M37 33.5C42.5 33.5 47 29 47 23.5C47 18 42.5 13.5 37 13.5C31.5 13.5 27 18 27 23.5C27 29 31.5 33.5 37 33.5Z" stroke="white" stroke-width="1.5" stroke-linecap="round" stroke-linejoin="round"/>
<path d="M34.17 26.33L39.83 20.67M39.83 26.33L34.17 20.67" stroke="white" stroke-width="1.5" stroke-linecap="round" stroke-linejoin="round"/>
<path d="M27.6056 50.6293H26.0544C25.9948 50.2978 25.8837 50.0062 25.7213 49.7543C25.5589 49.5024 25.3601 49.2886 25.1247 49.1129C24.8894 48.9373 24.6259 48.8047 24.3343 48.7152C24.0459 48.6257 23.7393 48.581 23.4145 48.581C22.8279 48.581 22.3025 48.7285 21.8385 49.0234C21.3778 49.3184 21.0132 49.7509 20.7448 50.321C20.4796 50.8911 20.347 51.5871 20.347 52.4091C20.347 53.2377 20.4796 53.937 20.7448 54.5071C21.0132 55.0772 21.3795 55.508 21.8435 55.7997C22.3075 56.0914 22.8295 56.2372 23.4095 56.2372C23.731 56.2372 24.036 56.1941 24.3243 56.108C24.616 56.0185 24.8795 55.8875 25.1148 55.7152C25.3501 55.5429 25.549 55.3324 25.7114 55.0838C25.8771 54.8319 25.9914 54.5436 26.0544 54.2188L27.6056 54.2237C27.5227 54.7242 27.362 55.1849 27.1233 55.6058C26.888 56.0234 26.5847 56.3847 26.2135 56.6896C25.8456 56.9912 25.4247 57.2249 24.9507 57.3906C24.4768 57.5563 23.9597 57.6392 23.3996 57.6392C22.518 57.6392 21.7325 57.4304 21.0431 57.0128C20.3537 56.5919 19.8101 55.9903 19.4124 55.2081C19.018 54.4259 18.8208 53.4929 18.8208 52.4091C18.8208 51.322 19.0196 50.389 19.4173 49.6101C19.8151 48.8279 20.3586 48.228 21.048 47.8104C21.7374 47.3894 22.5213 47.179 23.3996 47.179C23.9398 47.179 24.4436 47.2569 24.911 47.4126C25.3816 47.5651 25.8042 47.7905 26.1787 48.0888C26.5532 48.3838 26.8631 48.745 27.1084 49.1726C27.3537 49.5968 27.5194 50.0824 27.6056 50.6293ZM30.811 47.3182V57.5H29.3245V47.3182H30.811ZM36.0274 57.6541C35.3115 57.6541 34.6868 57.4901 34.1531 57.1619C33.6195 56.8338 33.2052 56.3748 32.9102 55.7848C32.6153 55.1948 32.4678 54.5054 32.4678 53.7166C32.4678 52.9245 32.6153 52.2318 32.9102 51.6385C33.2052 51.0452 33.6195 50.5845 34.1531 50.2564C34.6868 49.9283 35.3115 49.7642 36.0274 49.7642C36.7433 49.7642 37.3681 49.9283 37.9017 50.2564C38.4353 50.5845 38.8496 51.0452 39.1446 51.6385C39.4396 52.2318 39.5871 52.9245 39.5871 53.7166C39.5871 54.5054 39.4396 55.1948 39.1446 55.7848C38.8496 56.3748 38.4353 56.8338 37.9017 57.1619C37.3681 57.4901 36.7433 57.6541 36.0274 57.6541ZM36.0324 56.4062C36.4964 56.4062 36.8809 56.2836 37.1858 56.0384C37.4907 55.7931 37.7161 55.4666 37.8619 55.0589C38.0111 54.6513 38.0857 54.2022 38.0857 53.7116C38.0857 53.2244 38.0111 52.777 37.8619 52.3693C37.7161 51.9583 37.4907 51.6286 37.1858 51.38C36.8809 51.1314 36.4964 51.0071 36.0324 51.0071C35.5651 51.0071 35.1773 51.1314 34.8691 51.38C34.5641 51.6286 34.3371 51.9583 34.1879 52.3693C34.0421 52.777 33.9692 53.2244 33.9692 53.7116C33.9692 54.2022 34.0421 54.6513 34.1879 55.0589C34.3371 55.4666 34.5641 55.7931 34.8691 56.0384C35.1773 56.2836 35.5651 56.4062 36.0324 56.4062ZM46.9687 51.728L45.6214 51.9666C45.565 51.7943 45.4755 51.6302 45.3529 51.4744C45.2336 51.3187 45.0712 51.1911 44.8657 51.0916C44.6602 50.9922 44.4033 50.9425 44.0951 50.9425C43.6742 50.9425 43.3228 51.0369 43.0411 51.2259C42.7594 51.4115 42.6185 51.6518 42.6185 51.9467C42.6185 52.2019 42.713 52.4074 42.9019 52.5632C43.0908 52.719 43.3957 52.8466 43.8167 52.946L45.0297 53.2244C45.7324 53.3868 46.2561 53.6371 46.6008 53.9751C46.9455 54.3132 47.1178 54.7524 47.1178 55.2926C47.1178 55.75 46.9852 56.1577 46.7201 56.5156C46.4582 56.8703 46.092 57.1487 45.6214 57.3509C45.154 57.553 44.6121 57.6541 43.9956 57.6541C43.1405 57.6541 42.4429 57.4718 41.9026 57.1072C41.3624 56.7393 41.0309 56.2173 40.9083 55.5412L42.3451 55.3224C42.4346 55.697 42.6185 55.9804 42.8969 56.1726C43.1753 56.3615 43.5383 56.456 43.9857 56.456C44.4729 56.456 44.8624 56.3549 45.154 56.1527C45.4457 55.9472 45.5915 55.697 45.5915 55.402C45.5915 55.1634 45.502 54.9628 45.3231 54.8004C45.1474 54.638 44.8773 54.5154 44.5127 54.4325L43.2201 54.1491C42.5075 53.9867 41.9805 53.7282 41.6391 53.3736C41.301 53.0189 41.132 52.5698 41.132 52.0263C41.132 51.5755 41.258 51.1811 41.5099 50.843C41.7617 50.505 42.1098 50.2415 42.5539 50.0526C42.998 49.8603 43.5068 49.7642 44.0802 49.7642C44.9055 49.7642 45.5551 49.9432 46.029 50.3011C46.503 50.6558 46.8162 51.1314 46.9687 51.728ZM52.0434 57.6541C51.291 57.6541 50.6431 57.4934 50.0995 57.1719C49.5593 56.8471 49.1417 56.3913 48.8467 55.8047C48.555 55.2147 48.4092 54.5237 48.4092 53.7315C48.4092 52.9493 48.555 52.2599 48.8467 51.6634C49.1417 51.0668 49.5526 50.6011 50.0796 50.2663C50.6099 49.9316 51.2297 49.7642 51.939 49.7642C52.3699 49.7642 52.7875 49.8355 53.1919 49.978C53.5962 50.1205 53.9591 50.3442 54.2806 50.6491C54.6021 50.9541 54.8557 51.3501 55.0413 51.8374C55.2269 52.3213 55.3197 52.9096 55.3197 53.6023V54.1293H49.2494V53.0156H53.863C53.863 52.6245 53.7835 52.2782 53.6244 51.9766C53.4653 51.6716 53.2416 51.4313 52.9532 51.2557C52.6682 51.08 52.3334 50.9922 51.949 50.9922C51.5313 50.9922 51.1668 51.0949 50.8552 51.3004C50.547 51.5026 50.3083 51.7678 50.1393 52.0959C49.9736 52.4207 49.8907 52.7737 49.8907 53.1548V54.0249C49.8907 54.5353 49.9802 54.9695 50.1592 55.3274C50.3415 55.6854 50.595 55.9588 50.9198 56.1477C51.2446 56.3333 51.6241 56.4261 52.0583 56.4261C52.3401 56.4261 52.5969 56.3864 52.8289 56.3068C53.0609 56.224 53.2615 56.1013 53.4305 55.9389C53.5995 55.7765 53.7288 55.576 53.8183 55.3374L55.2252 55.5909C55.1125 56.0052 54.9104 56.3681 54.6187 56.6797C54.3303 56.9879 53.9674 57.2282 53.5299 57.4006C53.0957 57.5696 52.6002 57.6541 52.0434 57.6541Z" fill="white"/>
</g>
<defs>
<filter id="filter0_d_142_10197" x="0" y="0.5" width="74" height="73" filterUnits="userSpaceOnUse" color-interpolation-filters="sRGB">
<feFlood flood-opacity="0" result="BackgroundImageFix"/>
<feColorMatrix in="SourceAlpha" type="matrix" values="0 0 0 0 0 0 0 0 0 0 0 0 0 0 0 0 0 0 127 0" result="hardAlpha"/>
<feOffset dy="1"/>
<feGaussianBlur stdDeviation="1"/>
<feColorMatrix type="matrix" values="0 0 0 0 0 0 0 0 0 0 0 0 0 0 0 0 0 0 0.08 0"/>
<feBlend mode="normal" in2="BackgroundImageFix" result="effect1_dropShadow_142_10197"/>
<feBlend mode="normal" in="SourceGraphic" in2="effect1_dropShadow_142_10197" result="shape"/>
</filter>
</defs>
</svg>
