<svg width="21" height="22" viewBox="0 0 21 22" fill="none" xmlns="http://www.w3.org/2000/svg">
<path d="M19.5 4.97998C16.17 4.64998 12.82 4.47998 9.48 4.47998C7.5 4.47998 5.52 4.57998 3.54 4.77998L1.5 4.97998" stroke="#4C525F" stroke-width="1.5" stroke-linecap="round" stroke-linejoin="round"/>
<path opacity="0.34" d="M7 3.97L7.22 2.66C7.38 1.71 7.5 1 9.19 1H11.81C13.5 1 13.63 1.75 13.78 2.67L14 3.97" stroke="#4C525F" stroke-width="1.5" stroke-linecap="round" stroke-linejoin="round"/>
<path d="M17.3499 8.14001L16.6999 18.21C16.5899 19.78 16.4999 21 13.7099 21H7.2899C4.4999 21 4.4099 19.78 4.2999 18.21L3.6499 8.14001" stroke="#4C525F" stroke-width="1.5" stroke-linecap="round" stroke-linejoin="round"/>
<path opacity="0.34" d="M8.83008 15.5H12.1601" stroke="#4C525F" stroke-width="1.5" stroke-linecap="round" stroke-linejoin="round"/>
<path opacity="0.34" d="M8 11.5H13" stroke="#4C525F" stroke-width="1.5" stroke-linecap="round" stroke-linejoin="round"/>
</svg>
