<svg width="23" height="20" viewBox="0 0 23 20" fill="none" xmlns="http://www.w3.org/2000/svg">
<path opacity="0.4" d="M15.0799 10C15.0799 11.98 13.4799 13.58 11.4999 13.58C9.51992 13.58 7.91992 11.98 7.91992 10C7.91992 8.02004 9.51992 6.42004 11.4999 6.42004C13.4799 6.42004 15.0799 8.02004 15.0799 10Z" stroke="#4C525F" stroke-width="1.5" stroke-linecap="round" stroke-linejoin="round"/>
<path d="M11.5001 18.27C15.0301 18.27 18.3201 16.19 20.6101 12.59C21.5101 11.18 21.5101 8.80997 20.6101 7.39997C18.3201 3.79997 15.0301 1.71997 11.5001 1.71997C7.97009 1.71997 4.68009 3.79997 2.39009 7.39997C1.49009 8.80997 1.49009 11.18 2.39009 12.59C4.68009 16.19 7.97009 18.27 11.5001 18.27Z" stroke="#4C525F" stroke-width="1.5" stroke-linecap="round" stroke-linejoin="round"/>
</svg>
