<svg width="20" height="21" viewBox="0 0 20 21" fill="none" xmlns="http://www.w3.org/2000/svg">
<rect y="0.5" width="20" height="20" rx="10" fill="#E5E7EB"/>
<path d="M9.58 12.208C9.46 12.208 9.364 12.168 9.292 12.088C9.22 12 9.184 11.888 9.184 11.752C9.184 11.488 9.216 11.24 9.28 11.008C9.344 10.768 9.448 10.528 9.592 10.288C9.736 10.048 9.928 9.792 10.168 9.52C10.36 9.304 10.508 9.112 10.612 8.944C10.724 8.776 10.804 8.616 10.852 8.464C10.9 8.304 10.924 8.14 10.924 7.972C10.924 7.668 10.816 7.428 10.6 7.252C10.384 7.076 10.08 6.988 9.688 6.988C9.344 6.988 9.028 7.04 8.74 7.144C8.452 7.24 8.172 7.38 7.9 7.564C7.748 7.66 7.612 7.704 7.492 7.696C7.38 7.688 7.284 7.652 7.204 7.588C7.132 7.516 7.084 7.428 7.06 7.324C7.044 7.212 7.06 7.1 7.108 6.988C7.164 6.868 7.26 6.76 7.396 6.664C7.716 6.432 8.088 6.252 8.512 6.124C8.936 5.996 9.352 5.932 9.76 5.932C10.24 5.932 10.66 6.012 11.02 6.172C11.38 6.332 11.66 6.556 11.86 6.844C12.06 7.132 12.16 7.472 12.16 7.864C12.16 8.112 12.124 8.348 12.052 8.572C11.98 8.796 11.864 9.024 11.704 9.256C11.552 9.48 11.336 9.728 11.056 10C10.808 10.248 10.608 10.476 10.456 10.684C10.304 10.884 10.192 11.08 10.12 11.272C10.056 11.456 10.012 11.652 9.988 11.86C9.98 11.964 9.94 12.048 9.868 12.112C9.796 12.176 9.7 12.208 9.58 12.208ZM9.568 14.548C9.336 14.548 9.148 14.476 9.004 14.332C8.86 14.188 8.788 14.004 8.788 13.78C8.788 13.556 8.86 13.376 9.004 13.24C9.148 13.096 9.336 13.024 9.568 13.024C9.808 13.024 9.992 13.096 10.12 13.24C10.256 13.376 10.324 13.556 10.324 13.78C10.324 14.004 10.256 14.188 10.12 14.332C9.992 14.476 9.808 14.548 9.568 14.548Z" fill="#374151"/>
</svg>
