<svg width="124" height="35" viewBox="0 0 124 35" fill="none" xmlns="http://www.w3.org/2000/svg">
<g clip-path="url(#clip0_1_67)">
<path d="M3.98487 29.2991C3.6409 29.2991 3.35426 29.1851 3.18228 28.9001C1.92107 27.418 2.66633 22.4587 2.66633 22.4017C3.06762 19.3805 3.69823 16.4164 4.55815 13.5092C5.13142 11.6851 5.81936 9.918 6.7366 8.2079C4.73013 8.2649 3.41159 9.23396 2.03572 10.659C1.9784 10.602 1.86374 10.545 1.80641 10.488L1.74908 10.431C1.63443 10.317 1.51977 10.26 1.40512 10.146C1.00382 9.80399 0.602528 9.34797 0.258562 8.89194C-0.0280773 8.49292 -0.0854051 7.97989 0.0865783 7.52386C0.487873 6.66881 1.80641 6.26979 2.26503 6.21279C3.23961 6.04178 4.15685 5.87077 5.13142 5.87077C5.36073 5.87077 5.53272 5.87077 5.7047 5.87077C6.90859 5.87077 8.1698 6.04178 9.31635 6.4978C10.0616 6.78282 10.6922 7.18184 11.2655 7.69487C10.4629 9.00595 9.71765 10.374 9.08704 11.7421C8.45644 13.1102 6.79393 16.9294 7.02324 17.4994C7.02324 17.5564 7.08057 17.5564 7.08057 17.5564C7.48186 17.1004 7.82583 16.5304 8.05514 15.9603C8.8004 14.6493 9.94696 12.6542 11.2655 10.716C12.8707 8.43591 14.4185 6.78282 15.7944 5.81376L16.081 5.64275C17.6862 4.55969 19.4634 3.30562 21.4698 3.30562C21.9285 3.30562 22.4444 3.36262 22.903 3.53363C23.075 3.59064 23.1897 3.76165 23.247 3.93266C23.3043 4.10367 23.247 4.33168 23.1324 4.44569C20.1513 9.51897 16.0237 19.0385 16.5397 20.0076C16.5397 20.0646 16.597 20.0646 16.6543 20.0646C16.8263 19.8366 16.9983 19.5515 17.1129 19.2665C17.5716 18.4115 18.3168 16.9294 19.2341 15.4473C20.094 14.0222 21.0112 12.7112 22.1005 11.4571C23.419 9.74699 25.0815 8.2649 26.916 7.06784C27.8906 6.55481 28.9798 6.21279 30.1263 6.15578C30.585 6.15578 30.9289 6.26979 30.9863 6.4408C31.0436 6.61181 31.0436 6.83982 30.9289 7.01083C30.8143 7.18184 30.6996 7.40986 30.5276 7.69487C30.241 8.1509 29.897 8.72093 29.725 9.06295C28.5212 11.0011 27.4319 13.0532 26.4574 15.1623C26.2281 15.6183 25.9987 16.1314 25.7694 16.5874C24.8522 18.4115 24.0496 20.1786 23.763 22.1167C23.763 22.1737 23.591 23.0287 23.8203 23.3708C23.8776 23.4278 23.9923 23.4848 24.0496 23.4848C24.2216 23.4848 24.3936 23.4278 24.5082 23.3138C25.0242 22.9147 26.0561 22.1737 28.4065 18.7535C29.0944 17.7274 29.6677 16.7014 30.1837 15.5613C30.2983 15.3333 30.413 15.1053 30.4703 14.9343C31.2729 13.2242 31.5022 12.7112 32.8781 11.9131C33.3367 11.6851 33.7953 11.5711 34.3113 11.5711C35.0565 11.5711 35.8018 11.7991 36.4897 12.1411C37.063 12.4261 37.579 12.8822 37.9802 13.3952C38.0949 13.6232 38.0949 13.9082 37.9802 14.1362C37.9229 14.2502 37.9229 14.3643 37.9229 14.3643L37.9802 14.4213C38.0376 14.4213 38.1522 14.4213 38.2096 14.3643H38.2669C38.4389 14.3072 38.6109 14.2502 38.7828 14.1932C39.2988 14.0222 39.8147 13.9082 40.044 13.8512C40.1014 13.8512 40.1587 13.8512 40.1587 13.8512C40.2734 13.8512 40.388 13.9082 40.5027 13.9652C40.56 14.0792 40.56 14.1932 40.5027 14.3072L38.4389 19.7226C38.4389 19.7226 37.8656 21.2046 37.9802 21.4327L38.0376 21.4897C38.0949 21.4897 38.2669 21.3757 38.4389 21.2046C38.9548 20.6346 39.4708 20.0076 39.9294 19.3235L40.6747 18.1265C41.4199 16.9294 42.0505 15.6183 42.5665 14.3643C42.7385 13.9652 42.9104 13.5092 43.1971 12.9962C43.3117 12.8822 43.3691 12.7112 43.4264 12.5401C43.4837 12.4831 43.541 12.3691 43.5984 12.2551C43.8277 11.7991 44.1143 11.2861 44.401 11.2861C44.6303 11.2861 44.9742 11.2861 45.3755 11.2861C46.8661 11.2861 47.726 11.5141 48.0126 11.9131C47.726 12.4831 47.382 12.9962 46.9807 13.5662C46.8087 13.8512 46.6367 14.0792 46.5221 14.2502C45.4902 16.1314 44.6303 18.1265 43.9423 20.1786C43.541 21.3186 43.3691 22.9147 43.713 23.3708C43.7704 23.4278 43.8277 23.4848 43.9423 23.4848C44.057 23.4848 44.1143 23.4278 44.229 23.3708C44.6303 23.0287 45.0316 22.6297 45.3755 22.1737C45.5475 22.0027 45.6622 21.7747 45.8342 21.6037C46.5221 20.8056 47.1527 19.9506 47.8406 19.0955C48.1846 18.6395 48.5859 18.1265 48.9872 17.6134C49.1018 17.4994 49.2165 17.3284 49.2738 17.2144C49.6751 16.7014 50.0191 16.2454 50.3631 16.2454C50.535 16.2454 50.6497 16.3024 50.7643 16.4734C48.7005 20.0076 46.3501 23.4278 43.7704 26.677C43.4837 27.019 43.0251 27.247 42.5665 27.304C42.3372 27.304 42.1652 27.247 41.9932 27.19C40.5027 26.3919 40.732 22.0597 41.1333 20.4066C40.56 21.4327 39.9294 22.4587 39.2415 23.4278C38.2669 24.8529 36.7764 26.791 35.6871 26.791C35.4005 26.791 35.1712 26.677 34.9992 26.4489C34.5406 25.5369 34.7126 24.1688 34.8845 23.0287C34.9419 22.6297 34.9992 22.2877 34.9992 22.0027C34.5979 23.0287 34.0246 23.9978 33.394 24.9099C32.5914 25.9929 31.7888 26.5629 30.8716 26.734C30.7569 26.734 30.585 26.791 30.413 26.791C29.9544 26.791 29.4384 26.62 29.1518 26.2209C28.0625 24.9669 28.6358 21.7747 28.9798 20.0646V19.8936C28.6931 20.2356 28.4065 20.6346 28.1772 21.0906C28.0052 21.3757 27.8906 21.6037 27.7186 21.8317C27.6039 22.0027 26.8587 23.0858 26.1134 24.1118C25.4828 24.9669 24.8522 25.8789 24.6229 26.2209C23.9349 27.247 23.1897 27.418 22.7884 27.418C22.7311 27.418 22.6737 27.418 22.6164 27.418C21.9285 27.19 21.4698 26.3919 21.2405 25.0809C20.6673 21.9457 22.5591 16.2454 22.5591 16.1884C22.6164 15.9603 22.6737 15.8463 22.6164 15.7893C22.6164 15.7893 22.6164 15.7893 22.5591 15.7893C22.3871 15.7893 21.6418 16.7014 21.2405 17.4994C19.75 19.9506 18.4315 22.5157 17.2849 25.0809C16.1384 27.988 15.2784 28.4441 14.9345 28.5011C14.8771 28.5011 14.7625 28.5581 14.7052 28.5581C13.6733 28.5581 13.3293 26.62 13.2146 25.9929C12.8707 23.7698 12.928 21.4327 13.444 19.2665C13.9026 17.2714 14.5905 15.2763 15.4504 13.3952L16.0237 11.9701C16.253 11.3431 16.3103 11.0011 16.253 10.8301C16.1957 10.773 16.1384 10.716 16.0237 10.659C15.9664 10.659 15.9664 10.659 15.909 10.659C15.2211 10.659 13.9026 12.3691 13.5013 12.9392L13.3293 13.2242C12.2401 14.8203 8.85773 19.7226 7.02324 25.2519C5.59005 29.2421 4.0422 29.2991 3.98487 29.2991ZM35.9164 13.6802C35.5725 13.6802 34.9992 14.1932 34.3686 15.1053C33.4514 16.4734 32.7061 17.8985 32.0755 19.4375C31.3876 21.2046 31.2156 22.6297 31.5022 23.4848C31.5595 23.5988 31.6169 23.6558 31.7315 23.6558C32.3048 23.6558 33.6233 21.6037 34.7126 19.8936C34.9419 19.4945 35.1712 19.1525 35.4005 18.8105C35.8591 18.1265 36.2031 15.6753 36.2031 15.6183C36.3751 14.5923 36.3751 13.9082 36.1458 13.6802C36.0884 13.6802 36.0311 13.6802 35.9164 13.6802ZM58.7902 29.1851C57.701 29.1851 56.6118 29.0141 55.6372 28.6151C54.548 28.159 53.9174 27.418 53.86 26.5629C53.8027 25.7079 54.0894 24.7958 54.72 24.1688C55.2932 23.5418 55.9812 22.9717 56.7264 22.4587C57.1277 22.1737 57.4717 21.8887 57.7583 21.6607C58.045 18.4115 58.6756 15.2193 59.4782 12.0271C60.2234 9.23396 61.4273 6.55481 63.0325 4.16067C63.5484 3.98966 64.1217 3.93266 64.695 3.93266C65.7842 3.93266 66.8735 4.16067 67.9054 4.6167C67.676 5.07272 67.3894 5.52875 67.1028 5.98477C64.695 10.203 62.1726 14.5923 60.5674 19.7226C61.2553 19.3235 61.9433 18.9245 62.6885 18.5255C65.5549 16.8154 68.536 15.2763 71.6317 13.9652C72.2623 12.3691 72.6636 10.716 72.8929 9.00595C73.1222 6.95383 72.8355 5.35774 72.0903 4.21767C71.173 2.84959 69.5105 2.16556 67.3321 2.16556C66.7588 2.16556 66.1282 2.22256 65.5549 2.27956C63.7204 2.56458 61.8859 3.19161 60.2234 4.16067C58.5036 5.12972 56.5544 6.4978 56.2105 8.60692C55.0066 7.92288 54.204 6.78282 53.86 5.47174C53.6881 4.6167 53.9174 3.76165 54.4906 3.07761C55.5225 2.05155 56.7838 1.31051 58.1596 0.911484C59.8221 0.398455 61.4846 0.113438 63.2045 -0.000568144C63.7778 -0.0575714 64.351 -0.0575714 64.9243 -0.0575714C68.02 -0.0575714 70.7717 0.512461 72.7782 1.65253C73.8101 2.22256 74.67 2.9636 75.358 3.93266C76.0459 4.90171 76.4472 6.04178 76.5618 7.23885C76.6765 8.54992 76.6192 9.86099 76.4472 11.1151C76.4472 11.3431 76.3899 11.5711 76.3899 11.8561C77.1351 11.6851 77.995 11.4001 78.855 11.1721C79.3709 11.0011 79.9442 10.83 80.4601 10.716C81.1481 10.545 81.836 10.431 82.5239 10.374C82.9252 10.374 83.1545 10.431 83.2692 10.602C83.3265 10.659 83.3265 10.773 83.2692 10.8871C83.0972 11.2291 82.9252 11.5711 82.6959 12.0271C82.2946 12.7682 81.9507 13.5092 81.6067 14.0792C80.6321 15.8463 78.3963 20.3496 78.511 23.2568C78.511 23.4848 78.6256 23.5418 78.7976 23.5418C79.1416 23.5418 79.7722 23.0857 80.4601 22.3447C81.1481 21.6037 81.664 20.7486 82.0653 19.8366C82.8106 17.4994 83.6705 15.1623 84.7024 12.9392C85.2183 12.6542 85.7916 12.5401 86.3649 12.5401C87.1102 12.4831 87.8554 12.7112 88.4287 13.1102C88.0847 13.7372 87.7981 14.2502 87.5688 14.7633C87.4541 15.0483 87.2821 15.3333 87.1102 15.6753C86.0209 17.8415 85.1037 20.1786 84.4157 22.5157C84.3584 22.7437 84.3584 22.8577 84.4157 22.9147C84.4157 22.9147 84.4731 22.9717 84.5304 22.9717C85.1037 22.9717 87.7408 19.7796 88.7153 18.1265C88.8873 17.8415 89.1166 17.4424 89.3459 17.1004C89.5753 16.7014 89.8046 16.3594 90.0339 15.9603C90.3778 15.2193 90.6645 14.4213 90.8938 13.6232C90.9511 13.3952 91.0085 13.1672 91.1231 12.9392C92.0977 10.032 93.4735 7.29585 95.2507 4.84471C95.7667 4.78771 96.3973 4.7307 97.1425 4.7307C97.9451 4.7307 98.7477 4.78771 99.5503 4.95872C99.2637 5.47174 98.9197 5.98477 98.5184 6.4978C98.4611 6.61181 98.3464 6.72582 98.2891 6.83982C96.9705 8.66393 95.824 10.602 94.9641 12.7112C95.8813 12.2551 96.8559 11.9701 97.8878 11.9131C98.5184 11.8561 99.149 12.1411 99.5503 12.6542C100.066 13.2812 100.238 14.5353 100.124 16.1314C99.7796 18.2405 99.0343 20.2926 97.8305 22.0597C96.5692 24.1118 95.0214 25.6509 93.6455 26.2779C92.9003 26.5629 92.0977 26.734 91.2378 26.791C90.6072 26.791 89.8046 26.677 89.5753 25.9929C88.8873 23.8838 89.4033 19.8936 89.5179 19.0955C89.0593 19.6086 88.658 20.1786 88.2567 20.8056C87.7981 21.4897 87.2821 22.1167 86.7089 22.8577C86.6515 22.9147 86.5942 23.0287 86.5369 23.0857C85.7916 23.9978 84.3584 25.7079 83.2119 25.7079C83.1545 25.7079 83.0972 25.7079 83.0399 25.7079C82.0653 25.5369 82.0653 24.3398 82.1226 23.0857C82.1226 22.7437 82.1226 22.4587 82.1226 22.1737C82.008 22.2877 81.8933 22.4587 81.7213 22.6867C80.8614 23.8268 79.3136 25.9359 77.7657 25.9359C77.3644 25.9359 76.9631 25.7649 76.6192 25.4799C75.9312 24.9099 75.5873 23.7698 75.5299 22.1167C75.4726 18.7535 77.0778 15.5613 78.167 13.3952C78.2244 13.2812 78.2817 13.1102 78.3963 12.9962C78.4537 12.9392 78.4537 12.8252 78.4537 12.7682C78.3963 12.6542 78.167 12.6542 78.1097 12.6542C77.5937 12.7112 77.0778 12.8822 76.6192 13.1102C76.4472 13.1672 76.3325 13.2242 76.1606 13.3382C75.014 17.3854 72.8355 21.0906 69.8545 24.1118C68.4786 25.4799 66.9308 26.677 65.2109 27.589C63.3765 28.5581 61.37 29.1281 59.3062 29.1851C59.0769 29.1851 58.9622 29.1851 58.7902 29.1851ZM57.8157 24.3398C57.701 24.5678 57.529 24.8529 57.2997 25.1379C56.8411 25.8219 56.2678 26.62 56.3825 27.19C56.4398 27.361 56.4971 27.475 56.6691 27.532C57.0704 27.703 57.529 27.817 57.9876 27.817C59.7648 27.817 61.8286 26.5629 62.4592 26.1639C66.9308 23.4278 69.5679 18.7535 71.0011 15.3333C66.9881 17.1004 63.2618 19.4945 59.9368 22.3447C59.8221 23.3138 59.8221 24.2828 60.0514 25.2519C60.0514 25.3659 60.1088 25.4799 60.1088 25.5369C59.7075 25.9929 59.1342 26.2779 58.5036 26.2209C58.4463 26.2209 58.4463 26.2209 58.4463 26.2209C58.045 25.6509 57.8157 25.0239 57.8157 24.3398ZM95.652 13.7372C95.136 13.7372 94.5628 13.9082 94.1042 14.1932C93.0149 16.7014 90.9511 23.5418 91.5244 24.3968C91.5817 24.4538 91.6391 24.5108 91.6964 24.5108C91.7537 24.5108 91.811 24.5108 91.8684 24.4538C93.6455 23.0857 95.7667 19.6656 96.5119 16.8154C96.7986 15.7323 96.9132 14.0222 96.1679 13.8512C95.996 13.7942 95.824 13.7372 95.652 13.7372ZM113.653 27.247C113.424 27.247 113.252 27.19 113.08 27.133C112.277 26.677 112.048 25.1949 111.99 24.0548C111.933 22.8007 112.048 21.5467 112.277 20.3496C111.761 21.3186 111.13 22.2307 110.5 23.1428L110.385 23.3708C109.411 24.7958 107.92 26.734 106.831 26.734C106.544 26.734 106.315 26.62 106.143 26.3919C105.742 25.6509 105.856 24.3968 105.971 23.2568C106.028 22.8007 106.028 22.4017 106.028 22.0597C105.627 23.0857 105.054 24.0548 104.423 24.9669C103.621 26.0499 102.818 26.62 101.901 26.791C101.786 26.791 101.614 26.848 101.442 26.848C100.983 26.848 100.468 26.677 100.181 26.2779C99.0917 25.0239 99.6649 21.8317 100.009 20.1216L100.066 19.9506C100.41 18.4115 100.869 16.8724 101.385 15.3903C102.187 13.4522 102.531 12.8822 104.022 12.0271C104.423 11.7991 104.939 11.6851 105.398 11.6851C106.831 11.7421 108.149 12.4261 109.009 13.5092C109.124 13.7372 109.124 14.0222 109.009 14.2502C108.952 14.3643 108.952 14.4783 108.952 14.4783L109.009 14.5353C109.067 14.5353 109.181 14.5353 109.239 14.4783H109.296C109.468 14.4213 109.64 14.3643 109.812 14.3072C110.328 14.1362 110.844 14.0222 111.073 13.9652C111.13 13.9652 111.188 13.9652 111.188 13.9652C111.302 13.9652 111.417 14.0222 111.532 14.0792C111.589 14.1932 111.589 14.3072 111.532 14.4213L109.468 19.8366C109.468 19.8366 108.895 21.3186 109.009 21.5467L109.067 21.6037C109.124 21.6037 109.296 21.4897 109.468 21.3186C109.984 20.7486 110.5 20.1216 110.959 19.4375L111.704 18.2405C112.449 17.0434 113.08 15.7323 113.596 14.4783C113.768 14.0222 113.94 13.5092 114.169 13.1102L114.398 12.6542C114.456 12.5972 114.513 12.4831 114.57 12.3691C114.799 11.9131 115.086 11.4001 115.373 11.4001C115.602 11.4001 115.946 11.4001 116.347 11.4001C117.838 11.4001 118.698 11.6281 118.984 12.0271C118.698 12.5972 118.354 13.1102 117.953 13.6802C117.781 13.9652 117.609 14.1932 117.494 14.3643C116.462 16.2454 115.602 18.2405 114.914 20.2926C114.513 21.4327 114.341 23.0287 114.685 23.4848C114.742 23.5418 114.799 23.5988 114.914 23.5988C115.029 23.5988 115.086 23.5418 115.201 23.4848C115.602 23.1428 116.003 22.7437 116.347 22.2877C116.519 22.1167 116.634 21.8887 116.806 21.7177C117.494 20.9196 118.124 20.0646 118.812 19.2095C119.156 18.7535 119.558 18.2405 119.959 17.7274C120.074 17.6134 120.188 17.4424 120.246 17.3284C120.647 16.8154 120.991 16.3594 121.335 16.3594C121.507 16.3594 121.621 16.4164 121.736 16.5874C119.672 20.1216 117.322 23.5418 114.742 26.791C114.57 27.019 114.169 27.247 113.653 27.247ZM107.06 13.6802C106.716 13.6802 106.2 14.1932 105.512 15.1053C103.85 17.3854 101.958 21.7177 102.589 23.5418C102.646 23.6558 102.703 23.7128 102.761 23.7128C103.277 23.7128 104.71 21.6037 105.799 19.8936C106.028 19.5515 106.258 19.2095 106.43 18.9245C106.774 18.4115 107.06 16.8724 107.175 16.1314C107.175 16.0173 107.232 15.9033 107.232 15.7323C107.404 14.7063 107.404 14.0222 107.175 13.7942C107.232 13.6802 107.118 13.6802 107.06 13.6802ZM118.296 10.089C118.182 10.089 118.067 10.089 117.953 10.032C117.093 9.918 116.405 9.17696 116.347 8.2649C116.347 7.69487 116.519 7.12484 116.863 6.66881C117.322 6.09878 117.895 5.69976 118.583 5.47174C118.87 5.41474 119.156 5.35774 119.5 5.35774C119.558 5.35774 119.615 5.35774 119.672 5.35774C120.475 5.41474 121.048 6.09878 120.991 6.89683C120.991 6.95383 120.991 7.01083 120.991 7.01083C120.876 7.75187 120.59 8.49292 120.074 9.06295C119.672 9.68998 118.984 10.032 118.296 10.089ZM47.21 10.089C47.0954 10.089 46.9807 10.089 46.8661 10.032C46.0061 9.918 45.3182 9.17696 45.2609 8.2649C45.2609 7.69487 45.4329 7.12484 45.7768 6.66881C46.2354 6.09878 46.8087 5.69976 47.4967 5.47174C47.7833 5.41474 48.0699 5.35774 48.4139 5.35774C48.4712 5.35774 48.5286 5.35774 48.5859 5.35774C49.3885 5.41474 49.9618 6.09878 49.9044 6.89683C49.9044 6.95383 49.9044 7.01083 49.9044 7.01083C49.7898 7.75187 49.5031 8.49292 48.9872 9.06295C48.5859 9.68998 47.898 10.032 47.21 10.089Z" fill="#DA291C"/>
<path d="M91.0606 32.7478L90.3727 34.9139H89.9714L89.0541 31.9497H89.5701L90.2007 34.2869L90.946 31.9497H91.2326L91.9779 34.2869L92.6085 31.9497H93.0671L92.2072 34.9139H91.7485L91.0606 32.7478Z" fill="#DA291C"/>
<path d="M93.411 34.7429C93.1817 34.5719 93.0671 34.3439 93.1244 34.0589C93.1244 33.4888 93.6404 33.1468 94.2136 33.0328C94.4429 32.9758 94.7296 32.9188 94.8442 32.8618C94.8442 32.3488 94.6149 32.1777 94.271 32.1777C93.9843 32.1777 93.6977 32.2917 93.4684 32.5198L93.2964 32.1777C93.583 31.9497 93.927 31.8357 94.271 31.8357C94.9016 31.8357 95.3029 32.1777 95.3029 32.9758V34.9139H94.8442V34.6859C94.6723 34.9139 94.3856 35.0279 94.099 35.0279C93.8123 35.0279 93.583 34.9139 93.411 34.7429Z" fill="#DA291C"/>
<path d="M96.1628 32.2918H95.7042V31.8927H96.1628V31.0947H96.6214V31.8927H97.3667V32.2918H96.6214V34.2299C96.6214 34.5149 96.7361 34.5719 96.908 34.5719C97.08 34.5719 97.1947 34.5149 97.3093 34.4009L97.424 34.7999C97.252 34.9139 97.0227 34.9709 96.7934 34.9709C96.3348 34.9709 96.1628 34.7429 96.1628 34.2869V32.2918Z" fill="#DA291C"/>
<path d="M97.596 33.3178C97.5386 32.7478 97.8253 32.1778 98.2839 31.8928C98.4559 31.7787 98.6852 31.7217 98.8572 31.7217C99.3731 31.7217 99.8318 32.0638 100.004 32.5768C100.061 32.8048 100.118 33.0328 100.118 33.3178H98.0546C98.0546 34.0589 98.3986 34.5149 99.0292 34.5149C99.3731 34.5149 99.6598 34.4009 99.8891 34.1729L100.004 34.5719C99.8318 34.7429 99.5451 34.8569 99.3158 34.8569C99.2011 34.8569 99.0865 34.9139 98.9718 34.9139C98.1692 34.9709 97.596 34.4009 97.596 33.3178Z" fill="#DA291C"/>
<path d="M101.093 34.8569H100.634V31.8927H101.036L101.093 32.1777C101.265 31.9497 101.552 31.8357 101.838 31.8357C101.953 31.8357 102.01 31.8357 102.068 31.8927V32.2918C102.01 32.2918 101.896 32.2347 101.838 32.2347C101.552 32.2918 101.322 32.4058 101.093 32.5768V34.8569Z" fill="#DA291C"/>
<path d="M103.558 34.8569V31.8928H104.017V34.8569H103.558ZM103.558 31.0377C103.558 30.8667 103.673 30.7527 103.845 30.7527C104.017 30.7527 104.131 30.8667 104.131 30.9807V31.0377C104.131 31.2087 104.017 31.3227 103.845 31.3797C103.615 31.3797 103.558 31.2657 103.558 31.0377Z" fill="#DA291C"/>
<path d="M104.762 34.2299C104.991 34.4579 105.278 34.5719 105.622 34.5719C106.023 34.5719 106.195 34.4009 106.195 34.1159C106.195 33.8879 105.966 33.7169 105.45 33.4888C104.877 33.2608 104.705 33.0328 104.705 32.6338C104.705 32.1778 105.106 31.7787 105.565 31.7787H105.622C105.966 31.7787 106.31 31.8928 106.596 32.1208L106.424 32.4628C106.195 32.2918 105.966 32.1778 105.679 32.1778C105.335 32.1778 105.163 32.3488 105.163 32.5768C105.163 32.7478 105.393 32.9188 105.851 33.1468C106.252 33.3178 106.596 33.5458 106.596 34.0589C106.596 34.3439 106.482 34.6289 106.195 34.7999C106.023 34.9139 105.794 34.9709 105.565 34.9709C105.335 34.9709 105.049 34.9139 104.819 34.7999C104.762 34.7999 104.705 34.7429 104.647 34.6859L104.59 34.6289L104.762 34.2299Z" fill="#DA291C"/>
<path d="M108.202 30.6957H108.66V34.1729C108.66 34.4579 108.718 34.5719 108.89 34.5719C109.004 34.5719 109.062 34.5149 109.176 34.5149L109.291 34.8569C109.119 34.9139 109.004 34.9709 108.832 34.9709C108.316 34.9709 108.202 34.7429 108.202 34.1159V30.6957Z" fill="#DA291C"/>
<path d="M109.635 34.8569V31.8928H110.093V34.8569H109.635ZM109.635 31.0377C109.635 30.8667 109.749 30.7527 109.921 30.7527C110.093 30.7527 110.208 30.8667 110.208 30.9807V31.0377C110.208 31.2087 110.093 31.3227 109.921 31.3797C109.692 31.3797 109.635 31.2657 109.635 31.0377Z" fill="#DA291C"/>
<path d="M111.412 32.2918V34.8569H110.953V32.2918H110.495V31.8927H110.953V31.6647C110.896 31.3797 111.011 31.0377 111.24 30.8097C111.412 30.6387 111.584 30.5817 111.813 30.5817C111.985 30.5817 112.157 30.6387 112.329 30.6387L112.272 31.0377C112.157 30.9807 111.985 30.9237 111.813 30.9807C111.469 30.9807 111.355 31.2087 111.355 31.6647V31.8927H112.043V32.2918H111.412Z" fill="#DA291C"/>
<path d="M112.215 33.3178C112.157 32.7478 112.444 32.1778 112.902 31.8928C113.074 31.7787 113.304 31.7217 113.476 31.7217C113.992 31.7217 114.45 32.0638 114.622 32.5768C114.68 32.8048 114.737 33.0328 114.737 33.3178H112.673C112.673 34.0589 113.017 34.5149 113.648 34.5149C113.992 34.5149 114.278 34.4009 114.508 34.1729L114.622 34.5719C114.45 34.7429 114.164 34.8569 113.934 34.8569C113.82 34.8569 113.705 34.9139 113.59 34.9139C112.788 34.9709 112.215 34.4009 112.215 33.3178Z" fill="#DA291C"/>
<path d="M121.402 12.4831V13.8512H121.746V12.4831H122.205V12.1981H120.887V12.4831H121.402Z" fill="#DA291C"/>
<path d="M123.352 13.9082L123.638 12.4831V13.9082H123.982V12.1981H123.524L123.237 13.5092L122.95 12.1981H122.434V13.8512H122.721V12.4831L123.008 13.9082H123.352Z" fill="#DA291C"/>
</g>
<defs>
<clipPath id="clip0_1_67">
<rect width="124" height="35" fill="white"/>
</clipPath>
</defs>
</svg>
