<svg width="24" height="24" viewBox="0 0 24 24" fill="none" xmlns="http://www.w3.org/2000/svg">
<path d="M16.19 2H7.81C4.17 2 2 4.17 2 7.81V16.18C2 19.83 4.17 22 7.81 22H16.18C19.82 22 21.99 19.83 21.99 16.19V7.81C22 4.17 19.83 2 16.19 2Z" fill="#F5F6F7"/>
<path d="M12.0004 10.6899C11.2804 10.6899 10.6904 11.2799 10.6904 11.9999C10.6904 12.7199 11.2804 13.3099 12.0004 13.3099C12.7204 13.3099 13.3104 12.7199 13.3104 11.9999C13.3104 11.2799 12.7204 10.6899 12.0004 10.6899Z" fill="#4B586E"/>
<path d="M7.00043 10.6899C6.28043 10.6899 5.69043 11.2799 5.69043 11.9999C5.69043 12.7199 6.28043 13.3099 7.00043 13.3099C7.72043 13.3099 8.31043 12.7199 8.31043 11.9999C8.31043 11.2799 7.72043 10.6899 7.00043 10.6899Z" fill="#4B586E"/>
<path d="M17.0004 10.6899C16.2804 10.6899 15.6904 11.2799 15.6904 11.9999C15.6904 12.7199 16.2804 13.3099 17.0004 13.3099C17.7204 13.3099 18.3104 12.7199 18.3104 11.9999C18.3104 11.2799 17.7204 10.6899 17.0004 10.6899Z" fill="#4B586E"/>
</svg>
