<svg width="16" height="20" viewBox="0 0 16 20" fill="none" xmlns="http://www.w3.org/2000/svg">
<path opacity="0.4" d="M14.9116 12.748L14.913 12.7502C15.2233 13.2594 15.2775 13.8584 15.0721 14.4037C14.8637 14.9566 14.4355 15.3737 13.8839 15.555L13.8839 15.555L13.8811 15.5559C11.9942 16.1881 10.0079 16.5 8.01994 16.5C6.03195 16.5 4.04657 16.1882 2.16098 15.5467L2.15998 15.5463C1.54292 15.3379 1.10185 14.9173 0.920655 14.4114L0.920671 14.4114L0.919232 14.4075C0.727196 13.8852 0.787566 13.3026 1.11856 12.7475C1.11879 12.7471 1.11902 12.7467 1.11925 12.7463L2.12778 11.0788L2.12784 11.0788L2.13183 11.072C2.2675 10.8394 2.38148 10.5281 2.46118 10.235C2.54078 9.94218 2.59994 9.61696 2.59994 9.35003V6.82002C2.59994 3.83562 5.02664 1.40002 8.01994 1.40002C11.0133 1.40002 13.4399 3.83562 13.4399 6.82002V9.35003C13.4399 9.61696 13.4991 9.94211 13.5786 10.2356C13.6583 10.5304 13.7717 10.8418 13.9051 11.0768L13.905 11.0769L13.9117 11.088L14.9116 12.748Z" fill="#6C768B" stroke="#6C768B"/>
<mask id="path-2-inside-1_154_133" fill="white">
<path d="M10.25 1.32C9.56005 1.05 8.81005 0.9 8.02005 0.9C7.24005 0.9 6.49005 1.04 5.80005 1.32C6.23005 0.51 7.08005 0 8.02005 0C8.97005 0 9.81005 0.51 10.25 1.32Z"/>
</mask>
<path d="M10.25 1.32C9.56005 1.05 8.81005 0.9 8.02005 0.9C7.24005 0.9 6.49005 1.04 5.80005 1.32C6.23005 0.51 7.08005 0 8.02005 0C8.97005 0 9.81005 0.51 10.25 1.32Z" fill="#6C768B"/>
<path d="M10.25 1.32L9.88565 2.25124L12.436 3.24922L11.1288 0.842669L10.25 1.32ZM5.80005 1.32L4.91679 0.85111L3.6268 3.2811L6.17607 2.24661L5.80005 1.32ZM10.6144 0.388757C9.81151 0.0745634 8.93811 -0.0999999 8.02005 -0.0999999V1.9C8.68199 1.9 9.30859 2.02544 9.88565 2.25124L10.6144 0.388757ZM8.02005 -0.0999999C7.11996 -0.0999999 6.24137 0.0617124 5.42403 0.393387L6.17607 2.24661C6.73872 2.01829 7.36013 1.9 8.02005 1.9V-0.0999999ZM6.68331 1.78889C6.93702 1.31096 7.44406 1 8.02005 1V-1C6.71604 -1 5.52308 -0.290959 4.91679 0.85111L6.68331 1.78889ZM8.02005 1C8.60201 1 9.10559 1.30814 9.37133 1.79733L11.1288 0.842669C10.5145 -0.288145 9.33809 -1 8.02005 -1V1Z" fill="#6C768B" mask="url(#path-2-inside-1_154_133)"/>
<path d="M6.09549 18.6143C6.14591 18.6193 6.19656 18.6239 6.24732 18.6282C6.82884 18.6792 7.42327 18.71 8.01993 18.71C8.60726 18.71 9.19231 18.6791 9.7644 18.628L9.7644 18.628L9.76734 18.6277C9.81033 18.6237 9.85794 18.6197 9.90851 18.6156C9.4473 19.1572 8.76201 19.5 7.99993 19.5C7.34101 19.5 6.69234 19.2319 6.23974 18.7628L6.23104 18.7538L6.2219 18.7452C6.17812 18.7042 6.13593 18.6604 6.09549 18.6143Z" fill="#6C768B" stroke="#6C768B"/>
</svg>
