<svg width="20" height="20" viewBox="0 0 20 20" fill="none" xmlns="http://www.w3.org/2000/svg">
<path opacity="0.4" d="M19.97 10C19.97 12.94 18.69 15.6 16.65 17.41C14.89 19.01 12.56 19.97 10 19.97C4.50003 19.97 0.0300293 15.5 0.0300293 10C0.0300293 4.50003 4.50003 0.0300293 10 0.0300293C12.56 0.0300293 14.89 0.990029 16.65 2.59003C18.69 4.40003 19.97 7.06003 19.97 10Z" fill="#4C525F"/>
<path d="M9.97003 14.39C9.95003 16.04 8.72003 16.44 7.57003 15.98C5.20003 15.03 3.53003 12.71 3.53003 9.99999C3.53003 7.28999 5.20003 4.97 7.57003 4.01C8.72003 3.55 9.95003 3.95999 9.97003 5.59999V14.39Z" fill="#4C525F"/>
</svg>
