<svg width="28" height="29" viewBox="0 0 28 29" fill="none" xmlns="http://www.w3.org/2000/svg">
<g id="Clip path group" filter="url(#filter0_d_8_1190)">
<mask id="mask0_8_1190" style="mask-type:luminance" maskUnits="userSpaceOnUse" x="6" y="2" width="16" height="17">
<g id="a">
<path id="Vector" d="M6 10.5C6 6.08172 9.58172 2.5 14 2.5V2.5C18.4183 2.5 22 6.08172 22 10.5V10.5C22 14.9183 18.4183 18.5 14 18.5V18.5C9.58172 18.5 6 14.9183 6 10.5V10.5Z" fill="white"/>
</g>
</mask>
<g mask="url(#mask0_8_1190)">
<g id="Group">
<path id="Vector_2" fill-rule="evenodd" clip-rule="evenodd" d="M2.00024 10.5C2.00024 6.08172 5.58197 2.5 10.0002 2.5H18.0002C22.4185 2.5 26.0002 6.08172 26.0002 10.5V10.5C26.0002 14.9183 22.4185 18.5 18.0002 18.5H10.0002C5.58197 18.5 2.00024 14.9183 2.00024 10.5V10.5Z" fill="#199D00"/>
<path id="Vector_3" fill-rule="evenodd" clip-rule="evenodd" d="M8.23831 7.59672C8.11788 7.19528 7.99783 7.26368 8.04516 7.68012C8.07116 7.90889 8.1415 8.10053 8.30605 8.13543C8.61125 8.16364 8.53923 7.73512 8.56659 7.49667C8.57765 7.40032 8.6925 7.28046 8.69638 7.37737V7.37737V7.95801C8.69454 8.06814 8.73343 8.13231 8.78513 8.1749C8.85904 8.23579 8.97145 8.21348 9.05662 8.25724V8.25724C9.11822 8.28888 9.12377 8.37089 9.12686 8.44007L9.13698 8.66632C9.15508 9.07091 9.40631 9.18231 9.41251 8.77737V8.77737C9.42094 8.53479 9.38662 8.31704 9.37629 8.17553C9.3689 8.07449 9.40742 7.94167 9.50572 7.9662V7.9662C9.52953 7.97214 9.55503 7.9875 9.57409 8.00297C9.65523 8.06879 9.70587 8.1379 9.84476 8.10317C10.0835 8.03866 10.2254 7.92253 10.2319 7.74188C10.224 7.57162 10.1897 7.40366 10.1303 7.244C10.1252 7.23005 10.1249 7.21959 10.1224 7.20491V7.20491C10.1133 7.15148 10.1564 7.14825 10.1932 7.10841C10.1962 7.10511 10.199 7.10132 10.2014 7.09704C10.2083 7.08498 10.2072 7.07032 10.2028 7.05713C10.1751 6.97228 10.1392 6.8925 10.0894 6.83325C10.041 6.7756 9.97572 6.71942 9.90044 6.71844C9.88515 6.71824 9.86996 6.72074 9.85533 6.72614C9.74679 6.76622 9.74383 6.91766 9.76475 7.03145C9.78702 7.15259 9.8358 7.26784 9.90812 7.36867C9.93131 7.40099 9.95424 7.43402 9.96691 7.47173C9.97104 7.48402 9.97473 7.49644 9.97797 7.50896C10.0078 7.62437 9.91344 7.75506 9.82064 7.68022V7.68022C9.80745 7.66957 9.79291 7.65616 9.77956 7.64571C9.76179 7.63182 9.73445 7.61013 9.70683 7.58703C9.63486 7.52683 9.61857 7.44054 9.62811 7.3472C9.63832 7.2473 9.63533 7.18863 9.62675 7.14518C9.61233 7.07215 9.59068 6.98822 9.55429 6.92328V6.92328C9.50007 6.82655 9.38418 6.69946 9.32541 6.7935V6.7935C9.24154 6.93866 9.28025 7.24833 9.34154 7.38704C9.35064 7.41306 9.36054 7.43711 9.37027 7.45893C9.40837 7.5444 9.36361 7.6729 9.31577 7.59247V7.59247C9.30935 7.58167 9.30116 7.5616 9.29801 7.54944C9.25342 7.37746 9.23225 7.20023 9.23509 7.02253C9.22246 6.90888 9.20983 6.69635 9.1585 6.57229C9.13423 6.51363 9.08456 6.44449 9.02146 6.45143V6.45143C8.93891 6.46051 8.9284 6.56805 8.9276 6.65108C8.92711 6.70117 8.92809 6.75126 8.93052 6.80128C8.93517 6.89716 8.95616 6.99124 8.97669 7.08501C9.01474 7.25875 9.03217 7.42673 9.05767 7.61285V7.61285C9.06672 7.90855 8.92995 7.44594 8.90726 7.15097C8.90151 7.07626 8.89093 7.01603 8.87702 6.98704V6.98704C8.83099 6.87196 8.66476 6.91226 8.5963 7.01559C8.56583 7.06158 8.53644 7.12041 8.51332 7.19056C8.48018 7.29107 8.46212 7.39612 8.44156 7.49994C8.43416 7.53732 8.42712 7.57761 8.42218 7.61608C8.3996 7.76124 8.30605 7.86446 8.23831 7.59672V7.59672Z" fill="white"/>
<path id="Vector_4" fill-rule="evenodd" clip-rule="evenodd" d="M9.093 8.56878C9.093 8.5701 9.09224 8.57131 9.09105 8.57188L8.81937 8.70246C8.49071 8.86043 8.29791 8.64124 8.62487 8.47979C8.71403 8.43576 8.80347 8.40813 8.88341 8.40649C9.08901 8.41292 9.03856 8.48656 9.09239 8.56682C9.09278 8.5674 9.093 8.56809 9.093 8.56878V8.56878Z" fill="white"/>
<path id="Vector_5" fill-rule="evenodd" clip-rule="evenodd" d="M8.91924 8.88234C8.91924 8.88289 8.91913 8.88348 8.91893 8.884C8.41279 10.1851 10.0096 10.4135 10.316 9.11497C10.3434 8.999 10.4432 8.79684 10.4547 8.91544V8.91544C10.4128 10.2703 9.09344 10.3606 8.86763 9.93479C8.81279 9.83802 8.79666 9.61221 8.79021 9.47673C8.75795 9.21221 8.61602 9.31544 8.59666 9.57995C8.57408 9.72511 8.57731 9.76705 8.57731 9.90899C8.64828 10.9735 10.3515 10.5154 10.6289 9.63479C10.6658 9.51119 10.6822 9.39569 10.6876 9.29213C10.7048 8.96223 10.9355 9.00566 11.1418 8.7477V8.7477V8.7477C11.193 8.67459 11.2932 8.775 11.3818 8.78545C11.5019 8.79961 11.6357 8.74138 11.6709 8.62189C11.6855 8.52864 11.6991 8.43435 11.7093 8.33844C11.7209 8.22949 11.5488 8.10392 11.5321 8.21221V8.21221L11.5096 8.3606C11.5079 8.36835 11.5038 8.37486 11.4981 8.38003C11.4371 8.43513 11.4073 8.29588 11.3481 8.23889C11.2996 8.19223 11.231 8.19777 11.1681 8.27638C11.0991 8.3626 11.0376 8.49765 10.9326 8.46355C10.916 8.45815 10.9021 8.44871 10.8933 8.43479C10.8834 8.41927 10.8856 8.38666 10.8858 8.36828V8.36828C10.8879 8.2057 10.6438 8.10239 10.6221 7.94125L10.5341 7.28595C10.5246 7.21448 10.574 7.17934 10.6439 7.16166V7.16166C10.6821 7.152 10.6928 7.09947 10.6806 7.06204C10.632 6.91284 10.5588 6.70214 10.496 6.57785C10.4583 6.50345 10.3881 6.45393 10.3063 6.47028V6.47028C10.2225 6.49608 10.145 6.56705 10.1709 6.70576L10.4289 8.32512V8.32512C10.456 8.46705 10.2578 8.42283 10.1586 8.31778C10.1078 8.26403 10.0463 8.22185 9.9386 8.22511C9.78053 8.22511 9.60311 8.39608 9.58376 8.5606V8.5606C9.52737 8.81123 9.69108 9.10032 9.9386 9.03157V9.03157V9.03157C10.0848 8.97105 10.1677 9.0108 10.0898 9.1486C10.0286 9.25688 9.91162 9.38738 9.69666 9.50253C9.42569 9.62511 9.20634 9.65092 9.09021 9.42834C9.01953 9.29019 9.09604 8.76487 8.92138 8.87854C8.92013 8.87935 8.91924 8.88085 8.91924 8.88234V8.88234Z" fill="white"/>
<path id="Vector_6" fill-rule="evenodd" clip-rule="evenodd" d="M11.1546 7.50243C11.1546 7.50104 11.1553 7.49989 11.1566 7.4994C11.2428 7.46685 11.5627 7.11213 11.6989 6.95801C11.7329 6.9196 11.7272 6.86072 11.6869 6.82913V6.82913V6.82913C11.6436 6.79065 11.72 6.74475 11.7475 6.69377C11.7666 6.65837 11.7703 6.61722 11.7641 6.57764C11.7499 6.48592 11.6636 6.41976 11.5707 6.41976V6.41976V6.41976C11.4777 6.41976 11.3895 6.48174 11.3646 6.57137C11.3642 6.57309 11.3637 6.57482 11.3633 6.57655C11.3326 6.69674 11.581 6.8097 11.4869 6.89042V6.89042C11.3569 7.02848 11.0864 7.22916 10.9198 7.36297C10.8161 7.44627 10.8545 7.51614 10.9876 7.51537C11.0692 7.5149 11.1461 7.51107 11.1541 7.50389C11.1546 7.50349 11.1546 7.50301 11.1546 7.50243V7.50243ZM8.12557 9.53236C7.93847 9.83236 7.92234 10.2807 8.02879 10.413C8.0804 10.4775 8.17073 10.5033 8.23847 10.484C8.33052 10.4442 8.38228 10.2931 8.38782 10.1861C8.39059 10.1327 8.37373 10.0539 8.32035 10.0528V10.0528C8.27645 10.0519 8.26358 10.1091 8.23676 10.1438C8.17703 10.2212 8.15042 10.125 8.14492 10.0453C8.13202 9.86784 8.14815 9.7001 8.1675 9.57107C8.19008 9.43881 8.1675 9.47752 8.12557 9.53236ZM16.1731 9.07508C16.1624 9.0422 16.1538 9.03266 16.1389 9.00146C15.9605 8.62744 15.7256 8.2651 15.6481 8.12268C15.4049 7.73745 15.1466 7.36189 14.874 6.99687C14.7898 6.89591 14.8392 6.90101 14.8903 6.90115C15.1326 6.90181 14.7173 6.55293 14.532 6.39687V6.39687C14.4707 6.35171 14.3223 6.27429 14.2965 6.40332C14.2837 6.4958 14.2881 6.58985 14.3094 6.68074C14.3223 6.74526 14.4159 6.85171 14.4643 6.91623C14.981 7.60974 15.4496 8.31243 15.8971 9.14221C16.0393 9.40598 16.2658 9.36006 16.1731 9.07508V9.07508Z" fill="white"/>
<path id="Vector_7" fill-rule="evenodd" clip-rule="evenodd" d="M15.6853 10.1896C15.4829 10.3178 15.3736 10.5744 15.6132 10.5744V10.5744C15.8842 10.5421 16.1196 10.3905 16.339 9.99374C16.3971 9.89697 16.5003 9.70342 16.5035 9.54536C16.5261 8.64213 16.4583 7.93891 16.3229 7.28729C16.3199 7.2572 16.3197 7.22431 16.3213 7.1958C16.324 7.1487 16.3449 7.12193 16.3906 7.1104V7.1104C16.4228 7.10228 16.4491 7.06242 16.4454 7.0294C16.4316 6.90868 16.3012 6.61478 16.2229 6.49052C16.1874 6.42278 16.1745 6.37762 16.1196 6.49697V6.49697C15.9623 6.74533 16.0457 7.06867 16.0808 7.36054C16.1671 8.07673 16.2078 8.74185 16.2777 9.48084C16.2782 9.48715 16.2785 9.49366 16.2788 9.50034C16.2853 9.6718 16.1587 9.80961 16.0319 9.92515C15.9242 10.0232 15.8082 10.1117 15.6853 10.1896ZM19.1706 10.2714C19.0567 10.3243 18.8719 10.3916 18.8543 10.5159V10.5159C18.8359 10.6468 19.0344 10.5989 19.1649 10.5779C19.3814 10.5431 19.6071 10.4699 19.7745 10.2163C19.8325 10.1228 19.9035 9.87116 19.9067 9.71955C19.9261 8.81633 19.8938 8.13891 19.7583 7.48729C19.7519 7.42278 19.7229 7.27762 19.7325 7.25826V7.25826C19.7732 7.16339 19.8741 7.15708 19.8216 7.06822C19.7457 6.93994 19.611 6.75919 19.5487 6.66149C19.5132 6.59697 19.5003 6.55181 19.4454 6.67116C19.3842 6.76794 19.3648 6.94213 19.3874 7.09374C19.5325 8.06149 19.639 8.78729 19.6583 9.64213V9.64213C19.6404 9.79745 19.5629 9.93768 19.463 10.0579C19.4218 10.1075 19.3801 10.1515 19.339 10.1808C19.2974 10.2116 19.2332 10.2424 19.1706 10.2714Z" fill="white"/>
<path id="Vector_8" fill-rule="evenodd" clip-rule="evenodd" d="M19.1483 9.4908V8.90048C19.1459 8.75338 19.1129 8.60839 19.0516 8.47467C18.9935 8.34564 19.029 8.24564 19.0032 8.10693C18.9774 7.97145 18.9838 7.76499 18.9451 7.6037C18.9366 7.56103 18.9196 7.45909 18.9128 7.38935C18.9083 7.34315 18.9203 7.29918 18.9666 7.29603V7.29603C19.0023 7.29361 19.0253 7.25132 19.0208 7.21588C19.0022 7.07008 18.8459 6.68141 18.7613 6.55854V6.55854C18.6849 6.41966 18.5173 6.69184 18.5356 6.84928C18.5414 6.89915 18.5514 6.95199 18.5613 7.0037C18.7548 8.01338 18.8967 8.92951 18.8677 9.88757C18.858 9.97144 19.1516 9.64564 19.1483 9.4908ZM17.7193 8.23596C17.7193 8.23774 17.718 8.23919 17.7162 8.23913C17.6078 8.23546 17.394 8.04468 17.2961 7.90858C17.2758 7.88045 17.2603 7.84871 17.256 7.81432C17.254 7.79744 17.2536 7.78036 17.255 7.76332C17.2552 7.76028 17.2555 7.75725 17.2559 7.75423C17.2631 7.69278 17.3079 7.6392 17.3679 7.62398C17.3925 7.61774 17.4175 7.61712 17.4399 7.62662C17.4479 7.63004 17.4493 7.62927 17.4541 7.63658V7.63658C17.477 7.67172 17.5374 7.74999 17.5752 7.73172C17.585 7.72695 17.5916 7.71902 17.595 7.70961C17.5964 7.70576 17.5969 7.70164 17.597 7.69754C17.5972 7.68145 17.5939 7.66727 17.5897 7.65293C17.5747 7.60182 17.5747 7.54405 17.6089 7.50322C17.669 7.43145 17.7798 7.43215 17.8258 7.5037C17.8709 7.55854 17.8871 7.67467 17.8935 7.75532C17.8935 7.79403 17.829 7.74564 17.7903 7.75532C17.7548 7.76822 17.7451 7.81016 17.7419 7.84886C17.7354 7.95209 17.7225 8.11661 17.7193 8.23596V8.23596ZM15.4742 9.74241C15.5064 9.43274 15.4645 8.88757 15.4613 8.70693C15.4484 8.2779 15.3774 7.44886 15.3451 7.31338C15.3064 7.05209 15.4516 7.34241 15.4322 7.1908C15.3838 6.93274 15.2387 6.75209 15.0709 6.51338V6.51338C14.9921 6.40668 14.8916 6.59426 14.8904 6.72693C14.8894 6.84493 14.9301 6.94584 14.9451 7.05532C15.0677 7.59403 15.1387 8.08757 15.1709 8.5779C15.1954 8.92274 15.2053 9.26839 15.2006 9.61392C15.1969 9.88932 15.4148 10.0114 15.4742 9.74241V9.74241Z" fill="white"/>
<path id="Vector_9" fill-rule="evenodd" clip-rule="evenodd" d="M19.5634 9.24815C19.564 9.24815 19.5644 9.24746 19.5641 9.24692C19.348 8.88919 19.026 8.4996 18.939 8.3546C18.6502 7.94913 18.3468 7.55425 18.0294 7.17073C17.7616 6.89009 18.1519 7.12557 17.9777 6.90944C17.8294 6.74815 17.7842 6.69654 17.6616 6.59977C17.5971 6.55783 17.5584 6.48041 17.539 6.61267C17.5294 6.7288 17.5229 6.86428 17.5294 6.96428C17.5294 7.01912 17.5874 7.11912 17.6358 7.18041C18.2467 7.93487 18.9155 8.70668 19.4695 9.65468C19.5212 9.74315 19.6053 9.74429 19.6111 9.64199C19.6196 9.49147 19.597 9.29322 19.5627 9.24942C19.5622 9.24887 19.5627 9.24815 19.5634 9.24815V9.24815Z" fill="white"/>
<path id="Vector_10" fill-rule="evenodd" clip-rule="evenodd" d="M9.83263 8.58386C9.83118 8.58647 9.82958 8.58912 9.82787 8.59182C9.79283 8.6472 9.81247 8.7203 9.87777 8.72574V8.72574C9.89032 8.72574 9.90581 8.72672 9.92061 8.72677C9.957 8.7269 9.98774 8.69939 9.99336 8.66344V8.66344C9.99619 8.6453 9.99414 8.62674 9.9874 8.60966C9.95516 8.51937 9.85198 8.55162 9.83263 8.58386Z" fill="#1BA400"/>
<path id="Vector_11" fill-rule="evenodd" clip-rule="evenodd" d="M17.0198 13.5943C17.1506 13.5857 17.2467 13.8381 17.3777 13.8435C17.5058 13.8488 17.6239 13.856 17.7595 13.8704C17.7867 13.8733 17.8141 13.8734 17.8413 13.8705L18.0972 13.8426C18.1637 13.8362 18.2175 13.8513 18.261 13.8796C18.5352 14.0576 18.5002 14.5879 18.1811 14.6588V14.6588V14.6588C18.0555 14.6781 17.9198 14.5762 17.7939 14.5596C17.7918 14.5593 17.7897 14.5591 17.7875 14.5588C17.6682 14.5523 17.5488 14.5523 17.4327 14.5426C17.3737 14.5382 17.3276 14.5412 17.2828 14.5445C17.1764 14.5524 17.0757 14.6492 16.9714 14.6265V14.6265C16.9092 14.6203 16.835 14.4493 16.85 14.3156C16.8511 14.3057 16.8623 14.278 16.8664 14.2689V14.2689C16.8909 14.2147 16.8357 14.1867 16.7762 14.1851C15.6366 14.1558 14.4919 14.1076 13.3746 14.1233C12.4714 14.1233 11.5843 14.162 10.6972 14.2007V14.2007C10.1727 14.1936 10.3165 13.7918 10.841 13.8006C10.975 13.8029 11.0899 13.8024 11.1649 13.7975C11.8101 13.7878 12.394 13.7362 13.0488 13.7168C14.2007 13.737 15.3398 13.7392 16.4889 13.8036C16.6038 13.8101 16.8316 13.5458 16.9396 13.5062V13.5062C16.9537 13.501 16.9751 13.5003 16.9797 13.5146C16.9887 13.5427 16.9996 13.5943 17.0198 13.5943V13.5943ZM12.0431 7.1451C11.9914 6.82671 11.8119 6.88848 11.84 7.20981C11.8486 7.3075 11.8683 7.39975 11.8955 7.482C12.0008 7.80033 12.412 7.78607 12.4963 7.46156C12.5068 7.42106 12.5167 7.37895 12.5259 7.33605C12.5327 7.30405 12.5522 7.24881 12.5739 7.22425V7.22425C12.618 7.17409 12.6318 7.26802 12.632 7.33486C12.6334 7.67498 12.6743 7.76332 12.7746 7.88135C12.8377 7.93769 12.9189 7.96962 13.0035 7.9714C13.0881 7.97317 13.1705 7.94467 13.2359 7.89103L13.4262 7.69748V7.69748C13.5076 7.61615 13.602 7.74862 13.6759 7.83678C13.6948 7.85932 13.7204 7.88119 13.7585 7.9007C13.8617 7.94264 14.0875 7.91038 14.1391 7.82006C14.2069 7.7007 14.2262 7.65877 14.2585 7.61361C14.2876 7.57477 14.3296 7.56867 14.3584 7.57488C14.3856 7.58075 14.3871 7.61108 14.3744 7.63582C14.3715 7.64143 14.3686 7.64725 14.366 7.65333C14.3441 7.70543 14.3996 7.77637 14.4512 7.75327V7.75327C14.4715 7.74419 14.4885 7.73858 14.5062 7.72519C14.5572 7.68679 14.6018 7.61556 14.6347 7.55088C14.6797 7.46245 14.694 7.29513 14.6069 7.34264V7.34264V7.34264C14.5432 7.38719 14.471 7.42603 14.3933 7.42691C14.3472 7.42743 14.3015 7.41529 14.2714 7.36845C14.2308 7.29408 14.217 7.19767 14.197 7.10892C14.1806 7.03614 14.1436 6.96655 14.1318 6.89287C14.1309 6.88711 14.1302 6.88146 14.1298 6.876C14.1268 6.82828 14.1828 6.83038 14.2306 6.82763V6.82763C14.2835 6.82457 14.3055 6.75398 14.2896 6.70341C14.2637 6.62069 14.1833 6.50669 14.123 6.43941C14.052 6.36199 13.9488 6.35232 13.852 6.43296C13.7875 6.49748 13.794 6.56199 13.7811 6.62974C13.7699 6.6768 13.7699 6.72583 13.7811 6.77288V6.77288C13.8034 6.86626 13.87 6.94259 13.9143 7.0277C13.9438 7.08415 13.9722 7.14686 13.9893 7.21746C14.0255 7.36707 13.9499 7.56544 13.7972 7.54587V7.54587C13.7456 7.53296 13.6617 7.51361 13.6166 7.17812C13.5972 7.02529 13.6034 6.83649 13.5885 6.67434C13.5713 6.48743 13.4464 6.21405 13.3553 6.37812V6.37812C13.3295 6.44264 13.2198 6.54587 13.2972 6.75877C13.3466 6.88422 13.3729 7.01699 13.3754 7.15073C13.3779 7.28188 13.3336 7.41311 13.2456 7.51038V7.51038C13.1649 7.59748 13.0746 7.5749 13.0069 7.54264V7.54264C12.862 7.44848 12.8658 7.25218 12.8674 7.07941C12.8691 6.90596 12.8645 6.73522 12.8391 6.68458C12.7811 6.56845 12.6843 6.61038 12.6424 6.64587C12.4552 6.85344 12.33 7.10938 12.2811 7.38457V7.38457C12.2307 7.54755 12.0808 7.36402 12.0516 7.19595C12.0488 7.1793 12.0459 7.16229 12.0431 7.1451Z" fill="white"/>
<path id="Vector_12" fill-rule="evenodd" clip-rule="evenodd" d="M12.4864 7.94215C12.4858 7.94215 12.4856 7.94138 12.4861 7.94105C12.5728 7.87833 12.5351 7.83796 12.6581 7.96092C12.6627 7.96551 12.6668 7.97082 12.67 7.97649C12.8335 8.26677 12.9304 8.58966 12.954 8.92184C12.9551 8.9375 12.9535 8.96384 12.9554 8.97942V8.97942C12.9654 9.06268 13.0329 9.00438 13.0866 8.93998C13.2242 8.775 13.5872 8.59898 13.9233 8.56796V8.56796C14.0652 8.53958 13.94 8.28847 13.9933 8.15391C14.0096 8.11291 14.0318 8.0751 14.0591 8.04201C14.1856 7.8885 14.4407 7.88684 14.5905 8.0178C14.6801 8.09617 14.7162 8.20948 14.72 8.35183C14.6895 8.79424 14.2521 8.89035 13.9728 8.92676C13.9421 8.93076 13.901 8.9307 13.8897 8.95954V8.95954C13.8764 8.99323 13.9451 8.99382 13.9813 8.99392L15.0479 8.99693C15.0635 8.99697 15.0788 9.00096 15.0924 9.00853V9.00853C15.1161 9.02168 15.1295 9.04436 15.108 9.06073C15.0973 9.06882 15.083 9.08258 15.0652 9.1099V9.1099C14.9409 9.30052 14.8047 9.51686 14.5824 9.56555C14.4326 9.59836 14.2814 9.62499 14.1293 9.64536C13.9787 9.66552 13.7869 9.68464 13.7417 9.82968C13.7334 9.85638 13.7324 9.88429 13.7394 9.91312C13.7602 9.96588 13.8388 10.0179 13.9128 10.0576C14.002 10.1055 14.1125 10.1222 14.1192 10.2232V10.2232C14.1252 10.3142 13.9889 10.393 13.8982 10.3829C13.4827 10.3364 13.1516 10.1659 12.979 9.92711C12.9213 9.84724 12.8314 9.75926 12.7781 9.84215V9.84215C12.6967 9.96734 12.6001 10.081 12.4912 10.1808C12.1892 10.4576 11.6623 10.6629 11.42 10.3325V10.3325V10.3325C11.332 10.2285 11.2481 10.1717 11.122 10.2233C10.9024 10.3132 10.5687 10.4427 10.4003 10.4729C10.3025 10.4905 10.3394 10.3874 10.4146 10.3224C10.6095 10.1538 10.8728 10.0097 11.1338 9.84846C11.2909 9.75137 11.3875 9.59459 11.4553 9.42278C11.457 9.41852 11.4587 9.41427 11.4604 9.41003C11.5226 9.25908 11.5742 9.29521 11.5813 9.45828V9.45828V9.45828C11.5813 9.51269 11.6134 9.51 11.6561 9.47624C11.7584 9.39536 11.9534 9.23414 12.0545 9.12168C12.1031 9.06771 12.1428 8.97846 12.1406 8.90591V8.90591C12.1381 8.82159 12.1189 8.7571 12.0744 8.68542C11.999 8.56378 11.914 8.53521 11.8781 8.44538C11.8673 8.40716 11.8606 8.36767 11.8579 8.32925C11.8456 8.14779 12.0483 7.97326 12.1845 8.09377V8.09377C12.2735 8.17085 12.3488 8.31606 12.3805 8.43422C12.3858 8.45409 12.3911 8.47548 12.371 8.47975V8.47975C12.2994 8.4949 12.2754 8.50796 12.3054 8.57471C12.3225 8.613 12.3352 8.65484 12.3458 8.70022C12.4104 8.95828 12.3878 9.05506 12.3297 9.2228C12.1233 9.65506 11.8587 9.78732 11.6265 9.94538C11.6239 9.94667 11.6218 9.96494 11.6258 9.99012C11.6418 10.0904 11.7107 10.1431 11.8122 10.1455V10.1455C11.9098 10.1478 12.0384 10.0943 12.1195 10.04C12.1923 9.99115 12.2611 9.9369 12.3252 9.87779C12.6262 9.60039 12.7452 9.17303 12.6393 8.77764C12.632 8.75032 12.6244 8.72341 12.6168 8.69699C12.5483 8.53162 12.4853 8.36403 12.4279 8.19451C12.4248 8.18546 12.423 8.17599 12.4226 8.16644C12.4176 8.049 12.4287 8.00469 12.4868 7.94317C12.4872 7.94279 12.4869 7.94215 12.4864 7.94215V7.94215ZM9.491 6.7357C9.62003 6.79699 9.86842 6.76796 9.85874 6.55828V6.55828C9.85447 6.49204 9.82905 6.39174 9.77188 6.42549C9.75568 6.43504 9.74205 6.4529 9.73616 6.47764V6.47764C9.72179 6.52074 9.68652 6.55601 9.67656 6.51169C9.67501 6.50483 9.67434 6.49675 9.67487 6.48732C9.67487 6.47836 9.67211 6.46941 9.66818 6.46109C9.65984 6.44343 9.64279 6.42925 9.62326 6.42925V6.42925C9.62163 6.42925 9.62016 6.4293 9.61883 6.42939C9.59584 6.431 9.59186 6.46363 9.58735 6.48622V6.48622C9.58548 6.49553 9.58553 6.50525 9.58278 6.51433C9.58035 6.52237 9.57548 6.52686 9.56863 6.52965C9.56229 6.53225 9.55359 6.53308 9.54681 6.53213V6.53213C9.53574 6.53056 9.52814 6.5228 9.52039 6.51475C9.51634 6.51054 9.51358 6.50561 9.51358 6.49699L9.51053 6.47263C9.50832 6.45489 9.50141 6.43662 9.48503 6.42948V6.42948C9.4785 6.42664 9.4712 6.4258 9.46414 6.42665C9.45956 6.42721 9.45529 6.42812 9.45132 6.42935C9.37441 6.45314 9.3861 6.60022 9.42367 6.67143C9.4378 6.69823 9.45917 6.72236 9.491 6.7357Z" fill="white"/>
<path id="Vector_13" fill-rule="evenodd" clip-rule="evenodd" d="M13.3483 8.36788C13.467 8.42722 13.7439 8.39924 13.7274 8.23627C13.7242 8.20516 13.715 8.1746 13.7129 8.1434V8.1434C13.7107 8.11046 13.7078 8.07064 13.6777 8.05694C13.6467 8.04277 13.6072 8.0642 13.5935 8.10982V8.10982C13.5861 8.15421 13.5457 8.1891 13.5348 8.14545C13.5331 8.13896 13.5322 8.13142 13.5322 8.12272C13.5322 8.11398 13.5296 8.10524 13.5258 8.09709C13.5172 8.07857 13.501 8.06465 13.4806 8.06465V8.06465V8.06465C13.4574 8.06465 13.4524 8.09564 13.4479 8.1184L13.4451 8.1324C13.4419 8.15498 13.4322 8.16465 13.4193 8.16465V8.16465C13.3996 8.16465 13.3761 8.15417 13.3715 8.13501C13.3711 8.13326 13.3709 8.13133 13.3709 8.12917C13.3709 8.11304 13.3709 8.08723 13.3644 8.07756V8.07756C13.3508 8.05716 13.318 8.05792 13.2967 8.07017C13.2941 8.07169 13.2916 8.07338 13.2893 8.07522C13.2341 8.11909 13.2485 8.21412 13.2726 8.28034C13.2855 8.31576 13.3084 8.35059 13.3483 8.36788ZM15.5999 7.69046C15.729 7.75498 15.9773 7.72594 15.9677 7.51627V7.51627C15.9634 7.45002 15.9386 7.35013 15.8807 7.38268C15.8646 7.39178 15.851 7.40887 15.8451 7.4324V7.4324C15.8327 7.47592 15.7955 7.51389 15.7855 7.46975C15.784 7.46288 15.7833 7.45478 15.7838 7.4453C15.7838 7.43755 15.7812 7.42981 15.7777 7.42247C15.7685 7.40331 15.7502 7.38724 15.729 7.38724V7.38724C15.7268 7.38724 15.725 7.38735 15.7233 7.38759C15.7028 7.39055 15.7011 7.42023 15.697 7.4406V7.4406C15.6947 7.45231 15.6953 7.465 15.6898 7.4756C15.6891 7.47707 15.6882 7.47843 15.6872 7.47967C15.6778 7.4916 15.6585 7.49379 15.6466 7.48441C15.6453 7.48338 15.6437 7.48218 15.6419 7.48078C15.6322 7.47433 15.6225 7.46788 15.6225 7.45498C15.6225 7.43885 15.6193 7.41304 15.6128 7.40014C15.6106 7.39686 15.6081 7.39432 15.605 7.39227C15.5907 7.38265 15.5653 7.38299 15.5498 7.39066V7.39066C15.4784 7.42607 15.4945 7.54743 15.5283 7.61962C15.5422 7.64951 15.5647 7.67681 15.5999 7.69046ZM16.7624 9.39046C16.7617 9.39046 16.7609 9.39079 16.7604 9.39136C16.5356 9.64951 16.6355 10.0744 16.687 10.1647C16.7043 10.1992 16.7206 10.2308 16.7372 10.26C16.8469 10.4533 17.123 10.627 17.2677 10.4582V10.4582C17.3358 10.3885 17.3697 10.2633 17.3947 10.147C17.432 9.97378 17.5557 9.71326 17.6773 9.84207V9.84207V9.84207C17.776 9.98097 17.9329 10.1029 18.1032 10.1013C18.1654 10.1007 18.2295 10.0806 18.2935 10.0388C18.3935 9.98078 18.4612 9.90659 18.5193 9.76143C18.5838 9.58401 18.5515 8.77111 18.5354 8.29046C18.5322 8.25175 18.4064 7.62594 18.4064 7.61949C18.4064 7.61339 18.3891 7.33328 18.3763 7.24009C18.375 7.23058 18.3738 7.21663 18.3731 7.20706V7.20706C18.3709 7.18043 18.4069 7.20339 18.4292 7.21817C18.4305 7.21902 18.4317 7.21983 18.4329 7.22059C18.4469 7.22934 18.4648 7.23606 18.4781 7.22625C18.491 7.21668 18.5014 7.19766 18.5047 7.17519C18.5095 7.14229 18.4919 7.11128 18.476 7.08208L18.2153 6.6032C18.1944 6.5648 18.1807 6.51846 18.137 6.51962V6.51962C18.1022 6.52054 18.0722 6.56535 18.0519 6.59362C18.0433 6.60563 18.0358 6.6185 18.0297 6.63204C18.0164 6.66154 18.0095 6.69356 18.0096 6.72594C18.0193 6.86465 18.0419 7.00336 18.0515 7.14207L18.1806 7.8453C18.2193 8.34852 18.229 8.7582 18.2677 9.26465C18.2628 9.42182 18.2254 9.56631 18.1797 9.63832C18.1559 9.67598 18.137 9.68673 18.0947 9.70093V9.70093C18.0325 9.72184 17.95 9.66417 17.9098 9.61227C17.8886 9.58486 17.8653 9.55264 17.8432 9.52092C17.7763 9.42489 17.6936 9.27976 17.5864 9.32694C17.5642 9.33671 17.5424 9.35329 17.5193 9.37433C17.3386 9.55175 17.2548 9.88723 17.129 10.1163C17.1031 10.1577 17.0377 10.1949 16.9613 10.1564C16.918 10.1346 16.8878 10.0939 16.8634 10.0521C16.6628 9.7066 16.7932 9.27423 16.765 9.3882C16.7647 9.38936 16.7636 9.39046 16.7624 9.39046V9.39046ZM15.6152 6.45528C15.6444 6.45307 15.6727 6.46246 15.6957 6.48064C15.7937 6.55807 15.8552 6.76124 15.8322 6.86465C15.8302 6.8771 15.8279 6.88967 15.8253 6.90224C15.7872 7.08767 15.7521 7.04567 15.687 6.86788V6.86788C15.6765 6.83353 15.6432 6.78674 15.6086 6.74036C15.536 6.64275 15.4939 6.46444 15.6152 6.45528V6.45528Z" fill="white"/>
<path id="Vector_14" fill-rule="evenodd" clip-rule="evenodd" d="M17.1451 9.5313C17.1677 9.24098 17.1257 9.06678 17.1193 8.89904C17.1128 8.7313 16.9257 7.44743 16.8935 7.3184V7.3184C16.8536 7.11904 17.0028 7.05028 16.8966 6.87693C16.8243 6.75885 16.7502 6.64149 16.7161 6.55711V6.55711C16.6598 6.45483 16.5888 6.59273 16.5639 6.70677C16.5331 6.84786 16.5255 6.99346 16.5419 7.13775C16.732 8.12974 16.9253 8.9567 16.9014 9.89701C16.9007 9.92453 16.9239 9.94651 16.9468 9.93132C17.0264 9.87872 17.1064 9.70533 17.1444 9.53122C17.1445 9.53082 17.1451 9.53089 17.1451 9.5313V9.5313ZM19.158 6.86532C19.158 6.86451 19.1588 6.86397 19.1595 6.86435C19.2682 6.92121 19.3289 7.21879 19.3193 7.30227C19.2967 7.46033 19.2386 7.62485 19.1967 7.60549C19.1548 7.58614 19.2064 7.37323 19.1838 7.30872C19.1651 7.23139 19.0627 7.10338 19.035 7.03215C19.0262 7.00929 19.0235 6.9834 19.0235 6.95888C19.0235 6.88267 19.1005 6.85045 19.1566 6.86637C19.1573 6.86657 19.158 6.86605 19.158 6.86532V6.86532ZM11.1677 8.98786C11.1677 8.98704 11.1685 8.98647 11.1693 8.98679C11.2715 9.03028 11.3289 9.24453 11.3193 9.30872C11.2999 9.42485 11.2451 9.54743 11.2064 9.53452C11.1871 9.5271 11.1869 9.49026 11.1905 9.44794C11.1979 9.35968 11.195 9.26335 11.1363 9.19707C11.1035 9.16015 11.0663 9.13171 11.0515 9.10736C11.0438 9.09458 11.0424 9.07879 11.0409 9.06392C11.0335 8.98759 11.1101 8.97477 11.1662 8.98899C11.167 8.98918 11.1677 8.98862 11.1677 8.98786V8.98786Z" fill="white"/>
<path id="Vector_15" fill-rule="evenodd" clip-rule="evenodd" d="M13.6541 9.31946C13.783 9.32591 13.8507 9.43232 13.7282 9.47424C13.6505 9.50082 13.5741 9.52352 13.5286 9.58181C13.466 9.66196 13.5621 9.88288 13.4612 9.89571V9.89571C13.3643 9.90804 13.3141 9.83023 13.2411 9.76529C13.1558 9.68944 13.0602 9.57067 13.0414 9.38718V9.38718C13.0347 9.25268 13.2398 9.2823 13.3738 9.29559C13.4646 9.30459 13.5617 9.31055 13.6508 9.31946H13.6541Z" fill="#1B9D00"/>
<path id="Vector_16" fill-rule="evenodd" clip-rule="evenodd" d="M8.41933 6.38863C8.41933 6.38781 8.42014 6.38723 8.42092 6.38747C8.57101 6.43371 8.58058 6.65497 8.56772 6.72247C8.54836 6.84182 8.49352 6.96763 8.45481 6.9515C8.41288 6.9386 8.45481 6.77731 8.43546 6.7257C8.4186 6.67271 8.3424 6.58736 8.31158 6.53139C8.29702 6.50495 8.28735 6.47005 8.29517 6.4409C8.30706 6.39661 8.37056 6.37814 8.4178 6.38982C8.41858 6.39001 8.41933 6.38943 8.41933 6.38863V6.38863ZM11.4161 7.4386C11.3 7.50312 11.2548 7.69021 11.3258 7.79989C11.3935 7.89666 11.5 7.86118 11.5161 7.86118C11.5972 7.87045 11.655 7.75489 11.6811 7.68905C11.6926 7.66021 11.6897 7.62068 11.6612 7.63303C11.6515 7.63723 11.6392 7.64447 11.6235 7.65604C11.5852 7.68426 11.5264 7.72502 11.5 7.68543V7.68543C11.4892 7.66915 11.4844 7.6516 11.4821 7.63219C11.476 7.58055 11.4843 7.52801 11.5064 7.48053C11.5258 7.4257 11.4806 7.39989 11.4161 7.4386ZM12.2888 6.29989C12.2877 6.29989 12.2866 6.30023 12.2857 6.30094C12.2303 6.34379 12.1129 6.46232 12.1097 6.59989C12.1097 6.67731 12.0935 6.67731 12.1419 6.72892C12.1806 6.78053 12.2193 6.77731 12.2935 6.7386C12.312 6.72663 12.3278 6.71102 12.34 6.69271C12.3522 6.6744 12.3605 6.65379 12.3645 6.63215C12.3792 6.56369 12.3179 6.62309 12.2817 6.61233C12.2513 6.60328 12.2499 6.5585 12.2532 6.52694C12.2574 6.48628 12.2849 6.45513 12.3192 6.41657C12.354 6.37745 12.4016 6.29855 12.3526 6.28026C12.341 6.27596 12.3222 6.2809 12.2916 6.29912C12.2908 6.29961 12.2898 6.29989 12.2888 6.29989V6.29989ZM12.9935 6.42765C12.9935 6.4285 12.9934 6.42934 12.9932 6.43015C12.9766 6.49722 12.9638 6.56514 12.9548 6.63358C12.9426 6.72671 12.9371 6.88554 13.0238 6.84926C13.0456 6.84009 13.0676 6.81926 13.0838 6.78376C13.128 6.66282 13.1459 6.583 13.1545 6.51984C13.1647 6.44484 13.1807 6.33436 13.1079 6.31356C13.0722 6.30337 13.0279 6.33888 12.9943 6.42384C12.9938 6.42504 12.9935 6.42636 12.9935 6.42765V6.42765ZM17.429 8.68198C17.429 8.68257 17.4295 8.68325 17.4299 8.68285C17.4547 8.65947 17.8974 8.34413 18.0223 8.25529C18.044 8.2398 18.0744 8.22776 18.0851 8.25226C18.0886 8.26035 18.0914 8.27036 18.0934 8.28158C18.1147 8.39687 18.0283 8.50509 17.9383 8.58012C17.7829 8.7095 17.6119 8.81914 17.429 8.90634C17.3969 8.92559 17.368 8.74071 17.428 8.68153C17.4284 8.68115 17.429 8.68144 17.429 8.68198V8.68198ZM17.943 8.67768C17.9738 8.67338 17.9997 8.6862 18.0198 8.70998C18.0525 8.74867 18.0775 8.81344 18.0948 8.88165C18.1364 9.04489 18.1527 9.23731 18.0481 9.36929C18.0216 9.40264 17.9943 9.41866 17.9774 9.40957C17.9322 9.39021 17.9806 9.20311 17.9613 9.1386C17.9521 9.10081 17.9314 9.04986 17.9111 8.99936C17.8659 8.88729 17.8233 8.69436 17.943 8.67768V8.67768ZM14.3419 10.1031C14.3274 10.0547 14.3717 10.0129 14.4088 9.97855C14.4519 9.93853 14.5045 9.90123 14.5243 9.88844C14.5294 9.88511 14.54 9.87988 14.5458 9.87795V9.87795C14.5805 9.86643 14.6371 9.98095 14.6288 10.0165C14.6233 10.0401 14.62 10.0655 14.6247 10.0942C14.6254 10.098 14.6265 10.1017 14.6279 10.1053C14.6313 10.1138 14.6346 10.1224 14.6389 10.1301C14.6653 10.1767 14.7305 10.1351 14.7788 10.1119C14.8253 10.0895 14.871 10.0796 14.9174 10.0741C14.9679 10.068 15.032 10.0661 15.0482 10.1143C15.0608 10.1516 15.0501 10.1979 15.0226 10.1999C14.8999 10.2262 14.8248 10.2569 14.7489 10.2891C14.6738 10.3209 14.5226 10.404 14.5226 10.3225V10.3225C14.5226 10.3202 14.506 10.3029 14.5049 10.2637C14.5038 10.2251 14.5209 10.1763 14.5019 10.1427V10.1427C14.4756 10.0962 14.4082 10.1558 14.3621 10.1288C14.3542 10.1241 14.3474 10.116 14.3419 10.1031V10.1031ZM18.627 10.2031C18.6265 10.2031 18.6262 10.2037 18.6265 10.204C18.6512 10.2351 18.6695 10.2663 18.6294 10.318C18.627 10.321 18.6243 10.3237 18.6213 10.3262L18.5854 10.3562C18.5353 10.3979 18.4594 10.4663 18.5076 10.5101C18.5149 10.5167 18.525 10.5221 18.5387 10.5257C18.6231 10.5498 18.7923 10.4603 18.8723 10.4123C18.9006 10.3953 18.9436 10.3576 18.9456 10.3247V10.3247C18.9475 10.2919 18.9244 10.2736 18.8916 10.2726C18.8682 10.2718 18.842 10.2758 18.8226 10.2741V10.2741C18.7552 10.2741 18.7936 10.1864 18.8177 10.1235C18.8182 10.1221 18.8188 10.1207 18.8193 10.1192C18.8273 10.1033 18.8293 10.0895 18.8243 10.0772C18.8036 10.0266 18.7307 10.0252 18.6761 10.0275C18.6641 10.0279 18.6518 10.0288 18.6378 10.0298C18.6105 10.0316 18.5805 10.0309 18.5592 10.0481C18.5461 10.0587 18.5391 10.0747 18.5334 10.1008C18.5326 10.1044 18.5324 10.1083 18.5328 10.112C18.5409 10.1763 18.5809 10.1749 18.6272 10.2021C18.6277 10.2024 18.6275 10.2031 18.627 10.2031V10.2031Z" fill="white"/>
<path id="Vector_17" fill-rule="evenodd" clip-rule="evenodd" d="M14.3804 8.42885C14.3643 8.46111 14.3062 8.45789 14.2514 8.42885C14.1966 8.39982 14.1707 8.34821 14.1869 8.31918C14.203 8.29014 14.2611 8.29014 14.3159 8.31918C14.3707 8.34821 14.3966 8.39982 14.3804 8.42885ZM11.5966 6.75789C11.5643 6.76756 11.5224 6.73853 11.503 6.69337C11.4836 6.64821 11.4933 6.61272 11.5256 6.60305C11.5578 6.59337 11.5998 6.62563 11.6191 6.66756C11.6385 6.7095 11.6288 6.75143 11.5966 6.75789Z" fill="#259F00"/>
<path id="Vector_18" fill-rule="evenodd" clip-rule="evenodd" d="M17.0712 14.2574C17.084 14.2217 17.1231 14.2207 17.161 14.222C17.3885 14.23 17.609 14.2259 17.8353 14.2335C17.9173 14.2363 18.0116 14.2808 17.9771 14.3553C17.9737 14.3627 17.9697 14.3691 17.9653 14.3741C17.9534 14.3875 17.9327 14.3839 17.9148 14.3835L17.8426 14.3816C17.7614 14.3794 17.66 14.3113 17.5789 14.314V14.314C17.4965 14.3167 17.3981 14.3894 17.3157 14.3864C17.2784 14.3851 17.2413 14.3822 17.2037 14.3793C17.1318 14.3735 17.0469 14.3254 17.0712 14.2574V14.2574Z" fill="#209000"/>
</g>
</g>
</g>
<defs>
<filter id="filter0_d_8_1190" x="0" y="0.5" width="28" height="28" filterUnits="userSpaceOnUse" color-interpolation-filters="sRGB">
<feFlood flood-opacity="0" result="BackgroundImageFix"/>
<feColorMatrix in="SourceAlpha" type="matrix" values="0 0 0 0 0 0 0 0 0 0 0 0 0 0 0 0 0 0 127 0" result="hardAlpha"/>
<feMorphology radius="2" operator="erode" in="SourceAlpha" result="effect1_dropShadow_8_1190"/>
<feOffset dy="4"/>
<feGaussianBlur stdDeviation="4"/>
<feColorMatrix type="matrix" values="0 0 0 0 0.0627451 0 0 0 0 0.0941176 0 0 0 0 0.156863 0 0 0 0.1 0"/>
<feBlend mode="normal" in2="BackgroundImageFix" result="effect1_dropShadow_8_1190"/>
<feBlend mode="normal" in="SourceGraphic" in2="effect1_dropShadow_8_1190" result="shape"/>
</filter>
</defs>
</svg>
