<svg width="60" height="18" viewBox="0 0 60 18" fill="none" xmlns="http://www.w3.org/2000/svg">
<g clip-path="url(#clip0_2336_3246)">
<path d="M1.9282 14.7792C1.76176 14.7792 1.62306 14.7233 1.53985 14.5837C0.929583 13.8578 1.29019 11.4288 1.29019 11.4009C1.48437 9.9211 1.7895 8.46926 2.20559 7.04534C2.48298 6.1519 2.81585 5.28638 3.25968 4.44879C2.28881 4.47671 1.6508 4.95134 0.985062 5.64934C0.957322 5.62142 0.901844 5.5935 0.874105 5.56558L0.846366 5.53766C0.790887 5.48182 0.735408 5.4539 0.67993 5.39806C0.485755 5.23054 0.29158 5.00718 0.125145 4.78382C-0.0135513 4.58839 -0.0412906 4.33711 0.0419272 4.11375C0.236102 3.69495 0.874105 3.49951 1.09602 3.47159C1.56759 3.38783 2.01141 3.30407 2.48298 3.30407C2.59394 3.30407 2.67716 3.30407 2.76037 3.30407C3.3429 3.30407 3.95316 3.38783 4.50795 3.61119C4.86856 3.75079 5.17369 3.94623 5.45108 4.19751C5.06273 4.83966 4.70212 5.50974 4.39699 6.17982C4.09186 6.8499 3.28742 8.72054 3.39838 8.99974C3.39838 9.02766 3.42612 9.02766 3.42612 9.02766C3.62029 8.8043 3.78673 8.5251 3.89768 8.2459C4.25829 7.60374 4.81308 6.62654 5.45108 5.67726C6.22778 4.56046 6.97674 3.75079 7.64248 3.27615L7.78118 3.19239C8.55788 2.66191 9.41779 2.04767 10.3887 2.04767C10.6106 2.04767 10.8602 2.07559 11.0821 2.15935C11.1654 2.18727 11.2208 2.27103 11.2486 2.35479C11.2763 2.43855 11.2486 2.55023 11.1931 2.60607C9.75067 5.09094 7.75344 9.75358 8.00309 10.2282C8.00309 10.2561 8.03083 10.2561 8.05857 10.2561C8.14179 10.1445 8.22501 10.0049 8.28048 9.86526C8.5024 9.44646 8.86301 8.72054 9.30684 7.99462C9.72293 7.29662 10.1668 6.65446 10.6938 6.04022C11.3318 5.20262 12.1362 4.47671 13.0239 3.89039C13.4955 3.63911 14.0225 3.47159 14.5773 3.44367C14.7992 3.44367 14.9656 3.49951 14.9934 3.58327C15.0211 3.66703 15.0211 3.77871 14.9656 3.86247C14.9102 3.94623 14.8547 4.05791 14.7715 4.19751C14.6328 4.42087 14.4663 4.70007 14.3831 4.86758C13.8006 5.81686 13.2736 6.82198 12.802 7.85502C12.691 8.07838 12.5801 8.32966 12.4691 8.55302C12.0253 9.44646 11.6369 10.312 11.4982 11.2613C11.4982 11.2892 11.415 11.708 11.526 11.8755C11.5537 11.9034 11.6092 11.9313 11.6369 11.9313C11.7202 11.9313 11.8034 11.9034 11.8588 11.8476C12.1085 11.6521 12.6078 11.2892 13.7451 9.61398C14.078 9.11142 14.3554 8.60886 14.605 8.05046C14.6605 7.93878 14.716 7.8271 14.7437 7.74334C15.1321 6.90574 15.243 6.65446 15.9088 6.26358C16.1307 6.1519 16.3526 6.09606 16.6023 6.09606C16.9629 6.09606 17.3235 6.20774 17.6564 6.37526C17.9337 6.51486 18.1834 6.73822 18.3776 6.9895C18.4331 7.10118 18.4331 7.24078 18.3776 7.35246C18.3498 7.4083 18.3498 7.46414 18.3498 7.46414L18.3776 7.49206C18.4053 7.49206 18.4608 7.49206 18.4885 7.46414H18.5163C18.5995 7.43622 18.6827 7.4083 18.7659 7.38038C19.0156 7.29662 19.2652 7.24078 19.3762 7.21286C19.4039 7.21286 19.4317 7.21286 19.4317 7.21286C19.4871 7.21286 19.5426 7.24078 19.5981 7.2687C19.6258 7.32454 19.6258 7.38038 19.5981 7.43622L18.5995 10.0886C18.5995 10.0886 18.3221 10.8145 18.3776 10.9262L18.4053 10.9541C18.4331 10.9541 18.5163 10.8983 18.5995 10.8145C18.8491 10.5353 19.0988 10.2282 19.3207 9.89318L19.6813 9.30686C20.0419 8.72054 20.3471 8.07838 20.5967 7.46414C20.6799 7.2687 20.7631 7.04534 20.9018 6.79406C20.9573 6.73822 20.9851 6.65446 21.0128 6.5707C21.0405 6.54278 21.0683 6.48694 21.096 6.4311C21.207 6.20774 21.3457 5.95646 21.4844 5.95646C21.5953 5.95646 21.7618 5.95646 21.9559 5.95646C22.6772 5.95646 23.0932 6.06814 23.2319 6.26358C23.0932 6.54278 22.9268 6.79406 22.7326 7.07326C22.6494 7.21286 22.5662 7.32454 22.5107 7.4083C22.0114 8.32966 21.5953 9.30686 21.2625 10.312C21.0683 10.8704 20.9851 11.6521 21.1515 11.8755C21.1792 11.9034 21.207 11.9313 21.2625 11.9313C21.3179 11.9313 21.3457 11.9034 21.4012 11.8755C21.5953 11.708 21.7895 11.5125 21.9559 11.2892C22.0392 11.2054 22.0946 11.0937 22.1778 11.01C22.5107 10.6191 22.8159 10.2003 23.1487 9.7815C23.3152 9.55814 23.5093 9.30686 23.7035 9.05558C23.759 8.99974 23.8145 8.91598 23.8422 8.86014C24.0364 8.60886 24.2028 8.3855 24.3693 8.3855C24.4525 8.3855 24.5079 8.41342 24.5634 8.49718C23.5648 10.2282 22.4275 11.9034 21.1792 13.4949C21.0405 13.6624 20.8186 13.7741 20.5967 13.802C20.4858 13.802 20.4025 13.7741 20.3193 13.7461C19.5981 13.3553 19.7091 11.2333 19.9032 10.4237C19.6258 10.9262 19.3207 11.4288 18.9878 11.9034C18.5163 12.6014 17.795 13.5507 17.268 13.5507C17.1293 13.5507 17.0183 13.4949 16.9351 13.3832C16.7132 12.9365 16.7964 12.2664 16.8797 11.708C16.9074 11.5125 16.9351 11.345 16.9351 11.2054C16.741 11.708 16.4636 12.1826 16.1584 12.6293C15.7701 13.1598 15.3817 13.439 14.9379 13.5228C14.8824 13.5228 14.7992 13.5507 14.716 13.5507C14.4941 13.5507 14.2444 13.4669 14.1057 13.2715C13.5787 12.6573 13.8561 11.0937 14.0225 10.2561V10.1724C13.8838 10.3399 13.7451 10.5353 13.6342 10.7587C13.5509 10.8983 13.4955 11.01 13.4122 11.1217C13.3568 11.2054 12.9962 11.7359 12.6355 12.2385C12.3304 12.6573 12.0253 13.104 11.9143 13.2715C11.5815 13.7741 11.2208 13.8578 11.0267 13.8578C10.9989 13.8578 10.9712 13.8578 10.9435 13.8578C10.6106 13.7461 10.3887 13.3553 10.2777 12.7131C10.0003 11.1775 10.9157 8.3855 10.9157 8.35758C10.9435 8.2459 10.9712 8.19006 10.9435 8.16214C10.9435 8.16214 10.9435 8.16214 10.9157 8.16214C10.8325 8.16214 10.4719 8.60886 10.2777 8.99974C9.55649 10.2003 8.91849 11.4567 8.3637 12.7131C7.80892 14.137 7.39283 14.3604 7.22639 14.3883C7.19865 14.3883 7.14318 14.4162 7.11544 14.4162C6.61613 14.4162 6.44969 13.4669 6.39422 13.1598C6.22778 12.0709 6.25552 10.9262 6.50517 9.86526C6.72709 8.88806 7.05996 7.91086 7.47605 6.9895L7.75344 6.2915C7.8644 5.98438 7.89214 5.81686 7.8644 5.7331C7.83666 5.70518 7.80892 5.67726 7.75344 5.64934C7.7257 5.64934 7.7257 5.64934 7.69796 5.64934C7.36509 5.64934 6.72709 6.48694 6.53291 6.76614L6.44969 6.90574C5.92265 7.6875 4.28603 10.0886 3.39838 12.7969C2.7049 14.7513 1.95594 14.7792 1.9282 14.7792ZM17.379 7.1291C17.2125 7.1291 16.9351 7.38038 16.63 7.8271C16.1862 8.49718 15.8256 9.19518 15.5204 9.94902C15.1876 10.8145 15.1043 11.5125 15.243 11.9313C15.2708 11.9872 15.2985 12.0151 15.354 12.0151C15.6314 12.0151 16.2694 11.01 16.7964 10.1724C16.9074 9.97694 17.0183 9.80942 17.1293 9.6419C17.3512 9.30686 17.5177 8.1063 17.5177 8.07838C17.6009 7.57582 17.6009 7.24078 17.4899 7.1291C17.4622 7.1291 17.4344 7.1291 17.379 7.1291ZM28.4469 14.7233C27.9199 14.7233 27.3928 14.6396 26.9213 14.4441C26.3942 14.2208 26.0891 13.8578 26.0613 13.439C26.0336 13.0202 26.1723 12.5735 26.4774 12.2664C26.7548 11.9593 27.0877 11.6801 27.4483 11.4288C27.6425 11.2892 27.8089 11.1496 27.9476 11.0379C28.0863 9.44646 28.3914 7.88294 28.7798 6.31942C29.1404 4.95134 29.7229 3.63911 30.4996 2.46647C30.7493 2.38271 31.0267 2.35479 31.3041 2.35479C31.8311 2.35479 32.3582 2.46647 32.8575 2.68983C32.7465 2.91319 32.6078 3.13655 32.4691 3.35991C31.3041 5.42598 30.0835 7.57582 29.3068 10.0886C29.6397 9.89318 29.9726 9.69774 30.3332 9.5023C31.7202 8.6647 33.1626 7.91086 34.6605 7.2687C34.9656 6.48694 35.1598 5.67726 35.2708 4.83966C35.3817 3.83455 35.243 3.05279 34.8824 2.49439C34.4386 1.82431 33.6342 1.48927 32.5801 1.48927C32.3027 1.48927 31.9975 1.51719 31.7202 1.54511C30.8325 1.68471 29.9448 1.99183 29.1404 2.46647C28.3082 2.94111 27.3651 3.61119 27.1987 4.64423C26.6161 4.30919 26.2278 3.75079 26.0613 3.10863C25.9781 2.68983 26.0891 2.27103 26.3665 1.93599C26.8658 1.43343 27.476 1.07047 28.1418 0.87503C28.9462 0.62375 29.7507 0.484151 30.5828 0.428311C30.8602 0.400391 31.1376 0.400391 31.415 0.400391C32.9129 0.400391 34.2444 0.67959 35.2153 1.23799C35.7146 1.51719 36.1307 1.88015 36.4636 2.35479C36.7964 2.82943 36.9906 3.38783 37.0461 3.97415C37.1016 4.6163 37.0738 5.25846 36.9906 5.8727C36.9906 5.98438 36.9629 6.09606 36.9629 6.23566C37.3235 6.1519 37.7396 6.0123 38.1557 5.90062C38.4053 5.81686 38.6827 5.7331 38.9324 5.67726C39.2652 5.5935 39.5981 5.53766 39.931 5.50974C40.1251 5.50974 40.2361 5.53766 40.2916 5.62142C40.3193 5.64934 40.3193 5.70518 40.2916 5.76102C40.2084 5.92854 40.1251 6.09606 40.0142 6.31942C39.82 6.68238 39.6536 7.04534 39.4871 7.32454C39.0156 8.19006 37.9337 10.3957 37.9892 11.8197C37.9892 11.9313 38.0447 11.9593 38.1279 11.9593C38.2944 11.9593 38.5995 11.7359 38.9324 11.3729C39.2652 11.01 39.5149 10.5912 39.7091 10.1445C40.0697 8.99974 40.4858 7.85502 40.9851 6.76614C41.2347 6.62654 41.5121 6.5707 41.7895 6.5707C42.1501 6.54278 42.5107 6.65446 42.7881 6.8499C42.6217 7.15702 42.483 7.4083 42.372 7.65958C42.3165 7.79918 42.2333 7.93878 42.1501 8.1063C41.6231 9.16726 41.1792 10.312 40.8464 11.4567C40.8186 11.5684 40.8186 11.6242 40.8464 11.6521C40.8464 11.6521 40.8741 11.6801 40.9018 11.6801C41.1792 11.6801 42.4552 10.1165 42.9268 9.30686C43.01 9.16726 43.121 8.97182 43.2319 8.8043C43.3429 8.60886 43.4539 8.44134 43.5648 8.2459C43.7312 7.88294 43.8699 7.49206 43.9809 7.10118C44.0086 6.9895 44.0364 6.87782 44.0919 6.76614C44.5634 5.34222 45.2292 4.00207 46.0891 2.80151C46.3387 2.77359 46.6439 2.74567 47.0045 2.74567C47.3928 2.74567 47.7812 2.77359 48.1695 2.85735C48.0308 3.10863 47.8644 3.35991 47.6702 3.61119C47.6425 3.66703 47.587 3.72287 47.5593 3.77871C46.9213 4.67214 46.3665 5.62142 45.9504 6.65446C46.3942 6.4311 46.8658 6.2915 47.3651 6.26358C47.6702 6.23566 47.9754 6.37526 48.1695 6.62654C48.4192 6.93366 48.5024 7.5479 48.4469 8.32966C48.2805 9.3627 47.9199 10.3678 47.3373 11.2333C46.7271 12.2385 45.9781 12.9923 45.3124 13.2994C44.9518 13.439 44.5634 13.5228 44.1473 13.5507C43.8422 13.5507 43.4538 13.4949 43.3429 13.1598C43.01 12.1268 43.2597 10.1724 43.3152 9.7815C43.0932 10.0328 42.8991 10.312 42.7049 10.6191C42.483 10.9541 42.2333 11.2613 41.9559 11.6242C41.9282 11.6521 41.9005 11.708 41.8727 11.7359C41.5121 12.1826 40.8186 13.0202 40.2638 13.0202C40.2361 13.0202 40.2084 13.0202 40.1806 13.0202C39.7091 12.9365 39.7091 12.3501 39.7368 11.7359C39.7368 11.5684 39.7368 11.4288 39.7368 11.2892C39.6813 11.345 39.6258 11.4288 39.5426 11.5405C39.1265 12.0989 38.3776 13.1319 37.6286 13.1319C37.4344 13.1319 37.2403 13.0481 37.0738 12.9085C36.741 12.6293 36.5745 12.0709 36.5468 11.2613C36.519 9.61398 37.2957 8.05046 37.8228 6.9895C37.8505 6.93366 37.8783 6.8499 37.9337 6.79406C37.9615 6.76614 37.9615 6.7103 37.9615 6.68238C37.9337 6.62654 37.8228 6.62654 37.795 6.62654C37.5454 6.65446 37.2957 6.73822 37.0738 6.8499C36.9906 6.87782 36.9351 6.90574 36.8519 6.96158C36.2971 8.9439 35.243 10.7587 33.8006 12.2385C33.1349 12.9085 32.3859 13.4949 31.5537 13.9416C30.6661 14.4162 29.6952 14.6954 28.6966 14.7233C28.5856 14.7233 28.5301 14.7233 28.4469 14.7233ZM27.9754 12.3501C27.9199 12.4618 27.8367 12.6014 27.7257 12.741C27.5038 13.0761 27.2264 13.4669 27.2819 13.7461C27.3096 13.8299 27.3374 13.8857 27.4206 13.9137C27.6147 13.9974 27.8367 14.0533 28.0586 14.0533C28.9185 14.0533 29.9171 13.439 30.2222 13.2436C32.3859 11.9034 33.6619 9.61398 34.3554 7.93878C32.4136 8.8043 30.6106 9.97694 29.0017 11.3729C28.9462 11.8476 28.9462 12.3222 29.0572 12.7969C29.0572 12.8527 29.0849 12.9085 29.0849 12.9365C28.8907 13.1598 28.6134 13.2994 28.3082 13.2715C28.2805 13.2715 28.2805 13.2715 28.2805 13.2715C28.0863 12.9923 27.9754 12.6852 27.9754 12.3501ZM46.2833 7.15702C46.0336 7.15702 45.7562 7.24078 45.5343 7.38038C45.0073 8.60886 44.0086 11.9593 44.286 12.3781C44.3138 12.406 44.3415 12.4339 44.3693 12.4339C44.397 12.4339 44.4247 12.4339 44.4525 12.406C45.3124 11.7359 46.3387 10.0607 46.6993 8.6647C46.838 8.13422 46.8935 7.29662 46.5329 7.21286C46.4497 7.18494 46.3665 7.15702 46.2833 7.15702ZM54.9934 13.7741C54.8824 13.7741 54.7992 13.7461 54.716 13.7182C54.3276 13.4949 54.2167 12.7689 54.1889 12.2105C54.1612 11.5963 54.2167 10.9821 54.3276 10.3957C54.078 10.8704 53.7729 11.3171 53.4677 11.7638L53.4122 11.8755C52.9407 12.5735 52.2195 13.5228 51.6924 13.5228C51.5537 13.5228 51.4428 13.4669 51.3595 13.3553C51.1654 12.9923 51.2208 12.3781 51.2763 11.8197C51.3041 11.5963 51.3041 11.4009 51.3041 11.2333C51.1099 11.7359 50.8325 12.2105 50.5274 12.6573C50.139 13.1877 49.7507 13.4669 49.3068 13.5507C49.2514 13.5507 49.1681 13.5786 49.0849 13.5786C48.863 13.5786 48.6133 13.4949 48.4747 13.2994C47.9476 12.6852 48.225 11.1217 48.3914 10.2841L48.4192 10.2003C48.5856 9.44646 48.8075 8.69262 49.0572 7.9667C49.4455 7.01742 49.612 6.73822 50.3332 6.31942C50.5274 6.20774 50.777 6.1519 50.9989 6.1519C51.6924 6.17982 52.3304 6.51486 52.7465 7.04534C52.802 7.15702 52.802 7.29662 52.7465 7.4083C52.7188 7.46414 52.7188 7.51998 52.7188 7.51998L52.7465 7.5479C52.7742 7.5479 52.8297 7.5479 52.8575 7.51998H52.8852C52.9684 7.49206 53.0516 7.46414 53.1348 7.43622C53.3845 7.35246 53.6342 7.29662 53.7451 7.2687C53.7729 7.2687 53.8006 7.2687 53.8006 7.2687C53.8561 7.2687 53.9115 7.29662 53.967 7.32454C53.9948 7.38038 53.9948 7.43622 53.967 7.49206L52.9684 10.1445C52.9684 10.1445 52.691 10.8704 52.7465 10.9821L52.7742 11.01C52.802 11.01 52.8852 10.9541 52.9684 10.8704C53.2181 10.5912 53.4677 10.2841 53.6896 9.94902L54.0502 9.3627C54.4109 8.77638 54.716 8.13422 54.9656 7.51998C55.0489 7.29662 55.1321 7.04534 55.243 6.8499L55.354 6.62654C55.3817 6.59862 55.4095 6.54278 55.4372 6.48694C55.5482 6.26358 55.6869 6.0123 55.8256 6.0123C55.9365 6.0123 56.103 6.0123 56.2971 6.0123C57.0183 6.0123 57.4344 6.12398 57.5731 6.31942C57.4344 6.59862 57.268 6.8499 57.0738 7.1291C56.9906 7.2687 56.9074 7.38038 56.8519 7.46414C56.3526 8.3855 55.9365 9.3627 55.6036 10.3678C55.4095 10.9262 55.3263 11.708 55.4927 11.9313C55.5204 11.9593 55.5482 11.9872 55.6036 11.9872C55.6591 11.9872 55.6869 11.9593 55.7423 11.9313C55.9365 11.7638 56.1307 11.5684 56.2971 11.345C56.3803 11.2613 56.4358 11.1496 56.519 11.0658C56.8519 10.6749 57.157 10.2561 57.4899 9.83734C57.6563 9.61398 57.8505 9.3627 58.0447 9.11142C58.1002 9.05558 58.1557 8.97182 58.1834 8.91598C58.3776 8.6647 58.544 8.44134 58.7104 8.44134C58.7937 8.44134 58.8491 8.46926 58.9046 8.55302C57.906 10.2841 56.7687 11.9593 55.5204 13.5507C55.4372 13.6624 55.243 13.7741 54.9934 13.7741ZM51.8034 7.1291C51.6369 7.1291 51.3873 7.38038 51.0544 7.8271C50.25 8.9439 49.3346 11.0658 49.6397 11.9593C49.6674 12.0151 49.6952 12.043 49.7229 12.043C49.9726 12.043 50.6661 11.01 51.1931 10.1724C51.3041 10.0049 51.415 9.83734 51.4982 9.69774C51.6647 9.44646 51.8034 8.69262 51.8588 8.32966C51.8588 8.27382 51.8866 8.21798 51.8866 8.13422C51.9698 7.63166 51.9698 7.29662 51.8588 7.18494C51.8866 7.1291 51.8311 7.1291 51.8034 7.1291ZM57.2403 5.37014C57.1848 5.37014 57.1293 5.37014 57.0738 5.34222C56.6577 5.28638 56.3249 4.92342 56.2971 4.47671C56.2971 4.19751 56.3803 3.91831 56.5468 3.69495C56.7687 3.41575 57.0461 3.22031 57.379 3.10863C57.5177 3.08071 57.6563 3.05279 57.8228 3.05279C57.8505 3.05279 57.8783 3.05279 57.906 3.05279C58.2943 3.08071 58.5717 3.41575 58.544 3.80663C58.544 3.83455 58.544 3.86247 58.544 3.86247C58.4885 4.22543 58.3498 4.58839 58.1002 4.86758C57.906 5.1747 57.5731 5.34222 57.2403 5.37014ZM22.8436 5.37014C22.7881 5.37014 22.7326 5.37014 22.6772 5.34222C22.2611 5.28638 21.9282 4.92342 21.9005 4.47671C21.9005 4.19751 21.9837 3.91831 22.1501 3.69495C22.372 3.41575 22.6494 3.22031 22.9823 3.10863C23.121 3.08071 23.2597 3.05279 23.4261 3.05279C23.4539 3.05279 23.4816 3.05279 23.5093 3.05279C23.8977 3.08071 24.1751 3.41575 24.1473 3.80663C24.1473 3.83455 24.1473 3.86247 24.1473 3.86247C24.0919 4.22543 23.9532 4.58839 23.7035 4.86758C23.5093 5.1747 23.1765 5.34222 22.8436 5.37014Z" fill="#DA291C"/>
<path d="M44.0617 16.4683L43.7288 17.5292H43.5346L43.0908 16.0774H43.3405L43.6456 17.2221L44.0062 16.0774H44.1449L44.5055 17.2221L44.8107 16.0774H45.0326L44.6165 17.5292H44.3946L44.0617 16.4683Z" fill="#DA291C"/>
<path d="M45.1995 17.4455C45.0885 17.3618 45.033 17.2501 45.0608 17.1105C45.0608 16.8313 45.3104 16.6638 45.5878 16.6079C45.6988 16.58 45.8375 16.5521 45.893 16.5242C45.893 16.2729 45.782 16.1891 45.6156 16.1891C45.4769 16.1891 45.3382 16.245 45.2272 16.3566L45.144 16.1891C45.2827 16.0774 45.4491 16.0216 45.6156 16.0216C45.9207 16.0216 46.1149 16.1891 46.1149 16.58V17.5293H45.893V17.4176C45.8097 17.5293 45.671 17.5851 45.5323 17.5851C45.3936 17.5851 45.2827 17.5293 45.1995 17.4455Z" fill="#DA291C"/>
<path d="M46.5305 16.2449H46.3086V16.0494H46.5305V15.6586H46.7524V16.0494H47.113V16.2449H46.7524V17.1942C46.7524 17.3338 46.8079 17.3617 46.8911 17.3617C46.9743 17.3617 47.0298 17.3338 47.0853 17.2779L47.1408 17.4734C47.0576 17.5292 46.9466 17.5571 46.8356 17.5571C46.6137 17.5571 46.5305 17.4454 46.5305 17.2221V16.2449Z" fill="#DA291C"/>
<path d="M47.2242 16.7475C47.1965 16.4683 47.3352 16.1891 47.5571 16.0495C47.6403 15.9936 47.7513 15.9657 47.8345 15.9657C48.0841 15.9657 48.3061 16.1332 48.3893 16.3845C48.417 16.4962 48.4447 16.6079 48.4447 16.7475H47.4461C47.4461 17.1104 47.6126 17.3338 47.9177 17.3338C48.0841 17.3338 48.2228 17.2779 48.3338 17.1663L48.3893 17.3617C48.3061 17.4455 48.1674 17.5013 48.0564 17.5013C48.0009 17.5013 47.9454 17.5292 47.89 17.5292C47.5016 17.5571 47.2242 17.2779 47.2242 16.7475Z" fill="#DA291C"/>
<path d="M48.9162 17.5014H48.6943V16.0495H48.8885L48.9162 16.1891C48.9995 16.0774 49.1382 16.0216 49.2769 16.0216C49.3323 16.0216 49.3601 16.0216 49.3878 16.0495V16.245C49.3601 16.245 49.3046 16.217 49.2769 16.217C49.1382 16.245 49.0272 16.3008 48.9162 16.3846V17.5014Z" fill="#DA291C"/>
<path d="M50.1084 17.5013V16.0495H50.3303V17.5013H50.1084ZM50.1084 15.6307C50.1084 15.5469 50.1639 15.4911 50.2471 15.4911C50.3303 15.4911 50.3858 15.5469 50.3858 15.6028V15.6307C50.3858 15.7144 50.3303 15.7703 50.2471 15.7982C50.1361 15.7982 50.1084 15.7424 50.1084 15.6307Z" fill="#DA291C"/>
<path d="M50.6916 17.1942C50.8026 17.3059 50.9413 17.3617 51.1077 17.3617C51.3019 17.3617 51.3851 17.278 51.3851 17.1384C51.3851 17.0267 51.2741 16.9429 51.0245 16.8313C50.7471 16.7196 50.6639 16.6079 50.6639 16.4125C50.6639 16.1891 50.8581 15.9937 51.08 15.9937H51.1077C51.2741 15.9937 51.4406 16.0495 51.5793 16.1612L51.4961 16.3287C51.3851 16.2449 51.2741 16.1891 51.1354 16.1891C50.969 16.1891 50.8858 16.2729 50.8858 16.3845C50.8858 16.4683 50.9967 16.5521 51.2187 16.6637C51.4128 16.7475 51.5793 16.8592 51.5793 17.1105C51.5793 17.2501 51.5238 17.3897 51.3851 17.4734C51.3019 17.5293 51.1909 17.5572 51.08 17.5572C50.969 17.5572 50.8303 17.5293 50.7194 17.4734C50.6916 17.4734 50.6639 17.4455 50.6361 17.4176L50.6084 17.3897L50.6916 17.1942Z" fill="#DA291C"/>
<path d="M52.3555 15.4631H52.5774V17.1663C52.5774 17.3059 52.6051 17.3617 52.6883 17.3617C52.7438 17.3617 52.7716 17.3338 52.827 17.3338L52.8825 17.5013C52.7993 17.5292 52.7438 17.5571 52.6606 17.5571C52.4109 17.5571 52.3555 17.4455 52.3555 17.1383V15.4631Z" fill="#DA291C"/>
<path d="M53.0488 17.5013V16.0495H53.2707V17.5013H53.0488ZM53.0488 15.6307C53.0488 15.5469 53.1043 15.4911 53.1875 15.4911C53.2707 15.4911 53.3262 15.5469 53.3262 15.6028V15.6307C53.3262 15.7144 53.2707 15.7703 53.1875 15.7982C53.0766 15.7982 53.0488 15.7424 53.0488 15.6307Z" fill="#DA291C"/>
<path d="M53.9087 16.2449V17.5013H53.6868V16.2449H53.4648V16.0495H53.6868V15.9378C53.659 15.7982 53.7145 15.6307 53.8255 15.519C53.9087 15.4353 53.9919 15.4073 54.1028 15.4073C54.1861 15.4073 54.2693 15.4353 54.3525 15.4353L54.3248 15.6307C54.2693 15.6028 54.1861 15.5749 54.1028 15.6028C53.9364 15.6028 53.8809 15.7145 53.8809 15.9378V16.0495H54.2138V16.2449H53.9087Z" fill="#DA291C"/>
<path d="M54.2975 16.7475C54.2697 16.4683 54.4084 16.1891 54.6303 16.0495C54.7136 15.9936 54.8245 15.9657 54.9077 15.9657C55.1574 15.9657 55.3793 16.1332 55.4625 16.3845C55.4903 16.4962 55.518 16.6079 55.518 16.7475H54.5194C54.5194 17.1104 54.6858 17.3338 54.9909 17.3338C55.1574 17.3338 55.2961 17.2779 55.407 17.1663L55.4625 17.3617C55.3793 17.4455 55.2406 17.5013 55.1296 17.5013C55.0742 17.5013 55.0187 17.5292 54.9632 17.5292C54.5749 17.5571 54.2975 17.2779 54.2975 16.7475Z" fill="#DA291C"/>
<path d="M58.7428 6.5428V7.21288H58.9093V6.5428H59.1312V6.4032H58.4932V6.5428H58.7428Z" fill="#DA291C"/>
<path d="M59.686 7.2408L59.8247 6.5428V7.2408H59.9911V6.4032H59.7692L59.6305 7.04536L59.4918 6.4032H59.2422V7.21288H59.3809V6.5428L59.5196 7.2408H59.686Z" fill="#DA291C"/>
</g>
<defs>
<clipPath id="clip0_2336_3246">
<rect width="60" height="17.1429" fill="white" transform="translate(0 0.428589)"/>
</clipPath>
</defs>
</svg>
