<svg width="192" height="56" viewBox="0 0 192 56" fill="none" xmlns="http://www.w3.org/2000/svg">
<g clip-path="url(#clip0_2336_3265)">
<path d="M6.17023 46.5415C5.63763 46.5415 5.19381 46.3623 4.92751 45.9144C2.97467 43.5854 4.12862 35.7923 4.12862 35.7027C4.74998 30.9551 5.7264 26.2972 7.05788 21.7288C7.94554 18.8623 9.01073 16.0854 10.431 13.3981C7.32418 13.4877 5.28257 15.0105 3.1522 17.2499C3.06343 17.1604 2.8859 17.0708 2.79714 16.9812L2.70837 16.8916C2.53084 16.7125 2.35331 16.6229 2.17578 16.4437C1.55442 15.9063 0.933057 15.1897 0.400464 14.4731C-0.0433643 13.846 -0.13213 13.0398 0.134167 12.3232C0.755526 10.9796 2.79714 10.3525 3.50726 10.263C5.01628 9.99424 6.43653 9.72551 7.94554 9.72551C8.3006 9.72551 8.5669 9.72551 8.8332 9.72551C10.6973 9.72551 12.6501 9.99424 14.4254 10.7108C15.5794 11.1587 16.5558 11.7858 17.4435 12.592C16.2007 14.6522 15.0468 16.8021 14.0704 18.9519C13.0939 21.1017 10.5197 27.1034 10.8748 27.9991C10.8748 28.0887 10.9636 28.0887 10.9636 28.0887C11.5849 27.3721 12.1175 26.4763 12.4726 25.5806C13.6265 23.5203 15.4019 20.3851 17.4435 17.3395C19.9289 13.7565 22.3256 11.1587 24.4559 9.63593L24.8998 9.3672C27.3852 7.66525 30.1369 5.69456 33.2437 5.69456C33.9539 5.69456 34.7528 5.78414 35.4629 6.05287C35.7292 6.14244 35.9067 6.41117 35.9955 6.6799C36.0842 6.94863 35.9955 7.30694 35.8179 7.48609C31.2021 15.4584 24.811 30.4177 25.6099 31.9405C25.6099 32.0301 25.6987 32.0301 25.7874 32.0301C26.0537 31.6718 26.32 31.2239 26.4976 30.776C27.2077 29.4323 28.3616 27.1034 29.7819 24.7744C31.1134 22.535 32.5336 20.4747 34.2202 18.504C36.2618 15.8167 38.836 13.4877 41.6765 11.6066C43.1855 10.8004 44.872 10.263 46.6473 10.1734C47.3575 10.1734 47.8901 10.3525 47.9788 10.6213C48.0676 10.89 48.0676 11.2483 47.8901 11.517C47.7125 11.7858 47.535 12.1441 47.2687 12.592C46.8249 13.3086 46.2923 14.2043 46.026 14.7418C44.1619 17.7874 42.4754 21.0122 40.9663 24.3265C40.6113 25.0431 40.2562 25.8493 39.9012 26.5659C38.4809 29.4323 37.2382 32.2092 36.7944 35.2548C36.7944 35.3444 36.5281 36.688 36.8831 37.2255C36.9719 37.3151 37.1494 37.4047 37.2382 37.4047C37.5045 37.4047 37.7708 37.3151 37.9483 37.1359C38.7472 36.5089 40.345 35.3444 43.9844 29.9698C45.0496 28.3574 45.9372 26.745 46.7361 24.9535C46.9136 24.5952 47.0912 24.2369 47.1799 23.9682C48.4227 21.2809 48.7777 20.4747 50.9081 19.2206C51.6182 18.8623 52.3283 18.6832 53.1272 18.6832C54.2812 18.6832 55.4351 19.0415 56.5003 19.5789C57.388 20.0268 58.1869 20.7434 58.8082 21.5496C58.9858 21.9079 58.9858 22.3558 58.8082 22.7141C58.7195 22.8933 58.7195 23.0724 58.7195 23.0724L58.8082 23.162C58.897 23.162 59.0745 23.162 59.1633 23.0724H59.2521C59.5184 22.9828 59.7847 22.8933 60.051 22.8037C60.8498 22.535 61.6487 22.3558 62.0038 22.2662C62.0926 22.2662 62.1813 22.2662 62.1813 22.2662C62.3589 22.2662 62.5364 22.3558 62.7139 22.4454C62.8027 22.6245 62.8027 22.8037 62.7139 22.9828L59.5184 31.4926C59.5184 31.4926 58.6307 33.8216 58.8082 34.1799L58.897 34.2695C58.9858 34.2695 59.2521 34.0903 59.5184 33.8216C60.3172 32.9258 61.1161 31.9405 61.8263 30.8656L62.9802 28.9845C64.1342 27.1034 65.1106 25.0431 65.9095 23.0724C66.1758 22.4454 66.4421 21.7288 66.8859 20.9226C67.0634 20.7434 67.1522 20.4747 67.241 20.206C67.3297 20.1164 67.4185 19.9372 67.5073 19.7581C67.8623 19.0415 68.3062 18.2353 68.75 18.2353C69.105 18.2353 69.6376 18.2353 70.259 18.2353C72.5669 18.2353 73.8984 18.5936 74.3422 19.2206C73.8984 20.1164 73.3658 20.9226 72.7444 21.8183C72.4781 22.2662 72.2118 22.6245 72.0343 22.8933C70.4365 25.8493 69.105 28.9845 68.0399 32.2092C67.4185 34.0007 67.1522 36.5089 67.6848 37.2255C67.7736 37.3151 67.8623 37.4047 68.0399 37.4047C68.2174 37.4047 68.3062 37.3151 68.4837 37.2255C69.105 36.688 69.7264 36.061 70.259 35.3444C70.5253 35.0757 70.7028 34.7174 70.9691 34.4486C72.0343 33.1946 73.0107 31.8509 74.0759 30.5073C74.6085 29.7907 75.2299 28.9845 75.8512 28.1783C76.0288 27.9991 76.2063 27.7304 76.2951 27.5512C76.9164 26.745 77.449 26.0284 77.9816 26.0284C78.2479 26.0284 78.4254 26.118 78.603 26.3867C75.4074 31.9405 71.768 37.3151 67.7736 42.4209C67.3297 42.9584 66.6196 43.3167 65.9095 43.4063C65.5544 43.4063 65.2881 43.3167 65.0218 43.2271C62.7139 41.9731 63.069 35.1652 63.6903 32.5675C62.8027 34.1799 61.8263 35.7923 60.7611 37.3151C59.2521 39.5545 56.9442 42.6001 55.2576 42.6001C54.8138 42.6001 54.4587 42.4209 54.1924 42.0626C53.4823 40.6294 53.7486 38.4796 54.0149 36.688C54.1037 36.061 54.1924 35.5236 54.1924 35.0757C53.5711 36.688 52.6834 38.2108 51.707 39.6441C50.4643 41.346 49.2215 42.2418 47.8013 42.5105C47.6238 42.5105 47.3575 42.6001 47.0912 42.6001C46.3811 42.6001 45.5822 42.3314 45.1383 41.7043C43.4518 39.7336 44.3394 34.7174 44.872 32.0301V31.7613C44.4282 32.2988 43.9844 32.9258 43.6293 33.6424C43.363 34.0903 43.1855 34.4486 42.9192 34.8069C42.7417 35.0757 41.5877 36.7776 40.4338 38.39C39.4573 39.7337 38.4809 41.1669 38.1258 41.7043C37.0607 43.3167 35.9067 43.5854 35.2854 43.5854C35.1966 43.5854 35.1078 43.5854 35.0191 43.5854C33.9539 43.2271 33.2437 41.9731 32.8887 39.9128C32.001 34.9861 34.9303 26.0284 34.9303 25.9389C35.0191 25.5806 35.1078 25.4014 35.0191 25.3118C35.0191 25.3118 35.0191 25.3118 34.9303 25.3118C34.664 25.3118 33.51 26.745 32.8887 27.9991C30.5808 31.8509 28.5392 35.8819 26.7638 39.9128C24.9885 44.4812 23.6571 45.1978 23.1245 45.2874C23.0357 45.2874 22.8582 45.377 22.7694 45.377C21.1716 45.377 20.639 42.3314 20.4615 41.346C19.9289 37.8525 20.0177 34.1799 20.8166 30.776C21.5267 27.6408 22.5919 24.5056 23.9233 21.5496L24.811 19.3102C25.1661 18.3249 25.2548 17.7874 25.1661 17.5187C25.0773 17.4291 24.9885 17.3395 24.811 17.2499C24.7222 17.2499 24.7222 17.2499 24.6335 17.2499C23.5683 17.2499 21.5267 19.9372 20.9053 20.833L20.639 21.2809C18.9525 23.789 13.7153 31.4926 10.8748 40.1815C8.65566 46.4519 6.25899 46.5415 6.17023 46.5415ZM55.6127 21.9975C55.0801 21.9975 54.1924 22.8037 53.216 24.2369C51.7957 26.3867 50.6418 28.6262 49.6654 31.0447C48.6002 33.8216 48.3339 36.061 48.7777 37.4047C48.8665 37.5838 48.9553 37.6734 49.1328 37.6734C50.0204 37.6734 52.062 34.4486 53.7486 31.7613C54.1037 31.1343 54.4587 30.5968 54.8138 30.0594C55.5239 28.9845 56.0565 25.1327 56.0565 25.0431C56.3228 23.4307 56.3228 22.3558 55.9677 21.9975C55.879 21.9975 55.7902 21.9975 55.6127 21.9975ZM91.0302 46.3623C89.3436 46.3623 87.6571 46.0936 86.148 45.4665C84.4615 44.7499 83.4851 43.5854 83.3963 42.2418C83.3075 40.8981 83.7514 39.4649 84.7278 38.4796C85.6154 37.4942 86.6806 36.5985 87.8346 35.7923C88.4559 35.3444 88.9885 34.8965 89.4324 34.5382C89.8762 29.4323 90.8526 24.4161 92.0953 19.3998C93.2493 15.0105 95.1134 10.8004 97.5988 7.03821C98.3977 6.76948 99.2854 6.6799 100.173 6.6799C101.86 6.6799 103.546 7.03821 105.144 7.75482C104.789 8.47143 104.345 9.18805 103.901 9.90466C100.173 16.5333 96.2673 23.4307 93.7819 31.4926C94.8471 30.8656 95.9123 30.2385 97.0662 29.6115C101.504 26.9242 106.12 24.5056 110.914 22.4454C111.89 19.9372 112.511 17.3395 112.866 14.6522C113.222 11.4275 112.778 8.91932 111.624 7.12779C110.204 4.97795 107.629 3.90303 104.256 3.90303C103.369 3.90303 102.392 3.99261 101.504 4.08218C98.664 4.53007 95.8235 5.51541 93.2493 7.03821C90.5863 8.56101 87.5683 10.7108 87.0357 14.0252C85.1716 12.9503 83.9289 11.1587 83.3963 9.09847C83.13 7.75482 83.4851 6.41117 84.3727 5.33626C85.9705 3.72388 87.9234 2.55938 90.0537 1.93235C92.6279 1.12616 95.2021 0.678276 97.8651 0.499122C98.7528 0.409546 99.6404 0.409546 100.528 0.409546C105.321 0.409546 109.582 1.30531 112.689 3.09684C114.287 3.99261 115.618 5.1571 116.683 6.6799C117.749 8.2027 118.37 9.99424 118.547 11.8753C118.725 13.9356 118.636 15.9959 118.37 17.9665C118.37 18.3249 118.281 18.6832 118.281 19.131C119.435 18.8623 120.767 18.4144 122.098 18.0561C122.897 17.7874 123.785 17.5187 124.584 17.3395C125.649 17.0708 126.714 16.8916 127.779 16.8021C128.4 16.8021 128.756 16.8916 128.933 17.1604C129.022 17.2499 129.022 17.4291 128.933 17.6082C128.667 18.1457 128.4 18.6832 128.045 19.3998C127.424 20.5643 126.891 21.7288 126.359 22.6245C124.85 25.4014 121.388 32.478 121.566 37.0464C121.566 37.4047 121.743 37.4942 122.009 37.4942C122.542 37.4942 123.518 36.7776 124.584 35.6131C125.649 34.4486 126.448 33.105 127.069 31.6718C128.223 27.9991 129.554 24.3265 131.152 20.833C131.951 20.3851 132.839 20.206 133.726 20.206C134.88 20.1164 136.034 20.4747 136.922 21.1017C136.389 22.0871 135.946 22.8933 135.59 23.6994C135.413 24.1473 135.147 24.5952 134.88 25.1327C133.194 28.5366 131.774 32.2092 130.708 35.8819C130.62 36.2402 130.62 36.4193 130.708 36.5089C130.708 36.5089 130.797 36.5985 130.886 36.5985C131.774 36.5985 135.857 31.5822 137.366 28.9845C137.632 28.5366 137.987 27.9095 138.342 27.3721C138.697 26.7451 139.052 26.2076 139.407 25.5806C139.94 24.4161 140.384 23.162 140.739 21.9079C140.828 21.5496 140.916 21.1913 141.094 20.833C142.603 16.2646 144.733 11.9649 147.485 8.11313C148.284 8.02355 149.26 7.93398 150.414 7.93398C151.657 7.93398 152.9 8.02355 154.143 8.29228C153.699 9.09847 153.166 9.90466 152.545 10.7108C152.456 10.89 152.278 11.0692 152.19 11.2483C150.148 14.1148 148.373 17.1604 147.041 20.4747C148.462 19.7581 149.971 19.3102 151.568 19.2206C152.545 19.131 153.521 19.5789 154.143 20.3851C154.941 21.3705 155.208 23.3411 155.03 25.8493C154.498 29.1636 153.344 32.3884 151.48 35.1652C149.527 38.39 147.13 40.8086 145 41.7939C143.846 42.2418 142.603 42.5105 141.271 42.6001C140.295 42.6001 139.052 42.4209 138.697 41.346C137.632 38.0317 138.431 31.7613 138.609 30.5073C137.898 31.3135 137.277 32.2092 136.656 33.1946C135.946 34.2695 135.147 35.2548 134.259 36.4193C134.17 36.5089 134.081 36.688 133.993 36.7776C132.839 38.2108 130.62 40.8981 128.844 40.8981C128.756 40.8981 128.667 40.8981 128.578 40.8981C127.069 40.6294 127.069 38.7483 127.158 36.7776C127.158 36.2402 127.158 35.7923 127.158 35.3444C126.98 35.5236 126.803 35.7923 126.536 36.1506C125.205 37.9421 122.808 41.2564 120.412 41.2564C119.79 41.2564 119.169 40.9877 118.636 40.5398C117.571 39.6441 117.038 37.8525 116.95 35.2548C116.861 29.9698 119.346 24.9535 121.033 21.5496C121.122 21.3705 121.21 21.1017 121.388 20.9226C121.477 20.833 121.477 20.6538 121.477 20.5643C121.388 20.3851 121.033 20.3851 120.944 20.3851C120.145 20.4747 119.346 20.7434 118.636 21.1017C118.37 21.1913 118.192 21.2809 117.926 21.46C116.151 27.82 112.778 33.6424 108.162 38.39C106.032 40.5398 103.635 42.4209 100.972 43.8542C98.1314 45.377 95.0246 46.2727 91.829 46.3623C91.474 46.3623 91.2964 46.3623 91.0302 46.3623ZM89.5211 38.7483C89.3436 39.1066 89.0773 39.5545 88.7222 40.0024C88.0121 41.0773 87.1245 42.3314 87.302 43.2271C87.3908 43.4959 87.4795 43.675 87.7458 43.7646C88.3672 44.0333 89.0773 44.2125 89.7874 44.2125C92.5392 44.2125 95.7347 42.2418 96.7112 41.6148C103.635 37.3151 107.718 29.9698 109.937 24.5952C103.724 27.3721 97.9539 31.1343 92.8055 35.6131C92.6279 37.1359 92.6279 38.6587 92.983 40.1815C92.983 40.3607 93.0718 40.5398 93.0718 40.6294C92.4504 41.346 91.5627 41.7939 90.5863 41.7043C90.4976 41.7043 90.4976 41.7043 90.4976 41.7043C89.8762 40.8086 89.5211 39.8232 89.5211 38.7483ZM148.106 22.0871C147.308 22.0871 146.42 22.3558 145.71 22.8037C144.023 26.745 140.828 37.4942 141.715 38.8379C141.804 38.9275 141.893 39.017 141.982 39.017C142.07 39.017 142.159 39.017 142.248 38.9275C145 36.7776 148.284 31.403 149.438 26.9242C149.882 25.2222 150.059 22.535 148.905 22.2662C148.639 22.1766 148.373 22.0871 148.106 22.0871ZM175.979 43.3167C175.624 43.3167 175.357 43.2271 175.091 43.1376C173.848 42.4209 173.493 40.092 173.405 38.3004C173.316 36.3297 173.493 34.3591 173.848 32.4779C173.05 34.0007 172.073 35.434 171.097 36.8672L170.919 37.2255C169.41 39.4649 167.102 42.5105 165.416 42.5105C164.972 42.5105 164.617 42.3314 164.351 41.9731C163.729 40.8086 163.907 38.8379 164.084 37.0464C164.173 36.3297 164.173 35.7027 164.173 35.1652C163.552 36.7776 162.664 38.3004 161.688 39.7337C160.445 41.4356 159.202 42.3314 157.782 42.6001C157.604 42.6001 157.338 42.6897 157.072 42.6897C156.362 42.6897 155.563 42.4209 155.119 41.7939C153.432 39.8232 154.32 34.8069 154.853 32.1196L154.941 31.8509C155.474 29.4323 156.184 27.0138 156.983 24.6848C158.226 21.6392 158.758 20.7434 161.066 19.3998C161.688 19.0415 162.486 18.8623 163.197 18.8623C165.416 18.9519 167.457 20.0268 168.789 21.7288C168.966 22.0871 168.966 22.535 168.789 22.8933C168.7 23.0724 168.7 23.2516 168.7 23.2516L168.789 23.3411C168.878 23.3411 169.055 23.3411 169.144 23.2516H169.233C169.499 23.162 169.765 23.0724 170.032 22.9828C170.83 22.7141 171.629 22.535 171.984 22.4454C172.073 22.4454 172.162 22.4454 172.162 22.4454C172.339 22.4454 172.517 22.535 172.695 22.6245C172.783 22.8037 172.783 22.9828 172.695 23.162L169.499 31.6718C169.499 31.6718 168.611 34.0008 168.789 34.3591L168.878 34.4486C168.966 34.4486 169.233 34.2695 169.499 34.0007C170.298 33.105 171.097 32.1196 171.807 31.0447L172.961 29.1636C174.115 27.2825 175.091 25.2222 175.89 23.2516C176.156 22.535 176.423 21.7288 176.778 21.1017L177.133 20.3851C177.222 20.2955 177.31 20.1164 177.399 19.9372C177.754 19.2206 178.198 18.4144 178.642 18.4144C178.997 18.4144 179.529 18.4144 180.151 18.4144C182.459 18.4144 183.79 18.7727 184.234 19.3998C183.79 20.2955 183.258 21.1017 182.636 21.9975C182.37 22.4454 182.104 22.8037 181.926 23.0724C180.328 26.0284 178.997 29.1636 177.932 32.3884C177.31 34.1799 177.044 36.688 177.577 37.4047C177.665 37.4942 177.754 37.5838 177.932 37.5838C178.109 37.5838 178.198 37.4942 178.376 37.4047C178.997 36.8672 179.618 36.2402 180.151 35.5236C180.417 35.2548 180.595 34.8965 180.861 34.6278C181.926 33.3737 182.903 32.0301 183.968 30.6864C184.5 29.9698 185.122 29.1636 185.743 28.3574C185.921 28.1783 186.098 27.9095 186.187 27.7304C186.808 26.9242 187.341 26.2076 187.873 26.2076C188.14 26.2076 188.317 26.2972 188.495 26.5659C185.299 32.1196 181.66 37.4942 177.665 42.6001C177.399 42.9584 176.778 43.3167 175.979 43.3167ZM165.771 21.9975C165.238 21.9975 164.439 22.8037 163.374 24.2369C160.8 27.82 157.871 34.6278 158.847 37.4942C158.936 37.6734 159.025 37.763 159.113 37.763C159.912 37.763 162.131 34.4486 163.818 31.7613C164.173 31.2239 164.528 30.6864 164.794 30.2385C165.327 29.4323 165.771 27.0138 165.948 25.8493C165.948 25.6701 166.037 25.491 166.037 25.2222C166.303 23.6099 166.303 22.535 165.948 22.1766C166.037 21.9975 165.86 21.9975 165.771 21.9975ZM183.169 16.3542C182.991 16.3542 182.814 16.3542 182.636 16.2646C181.305 16.0854 180.24 14.9209 180.151 13.4877C180.151 12.592 180.417 11.6962 180.95 10.9796C181.66 10.0838 182.547 9.45678 183.613 9.09847C184.057 9.00889 184.5 8.91932 185.033 8.91932C185.122 8.91932 185.21 8.91932 185.299 8.91932C186.542 9.00889 187.43 10.0838 187.341 11.3379C187.341 11.4275 187.341 11.517 187.341 11.517C187.163 12.6815 186.719 13.846 185.921 14.7418C185.299 15.7271 184.234 16.2646 183.169 16.3542ZM73.0995 16.3542C72.922 16.3542 72.7444 16.3542 72.5669 16.2646C71.2354 16.0854 70.1702 14.9209 70.0815 13.4877C70.0815 12.592 70.3478 11.6962 70.8804 10.9796C71.5905 10.0838 72.4781 9.45678 73.5433 9.09847C73.9872 9.00889 74.431 8.91932 74.9636 8.91932C75.0523 8.91932 75.1411 8.91932 75.2299 8.91932C76.4726 9.00889 77.3602 10.0838 77.2715 11.3379C77.2715 11.4275 77.2715 11.517 77.2715 11.517C77.0939 12.6815 76.6501 13.846 75.8512 14.7418C75.2299 15.7271 74.1647 16.2646 73.0995 16.3542Z" fill="#DA291C"/>
<path d="M140.997 51.9607L139.932 55.3646H139.311L137.891 50.7067H138.69L139.666 54.3793L140.82 50.7067H141.264L142.418 54.3793L143.394 50.7067H144.104L142.773 55.3646H142.063L140.997 51.9607Z" fill="#DA291C"/>
<path d="M144.636 55.096C144.281 54.8273 144.104 54.469 144.193 54.0211C144.193 53.1253 144.991 52.5878 145.879 52.4087C146.234 52.3191 146.678 52.2295 146.856 52.14C146.856 51.3338 146.5 51.065 145.968 51.065C145.524 51.065 145.08 51.2442 144.725 51.6025L144.459 51.065C144.903 50.7067 145.435 50.5276 145.968 50.5276C146.944 50.5276 147.566 51.065 147.566 52.3191V55.3647H146.856V55.0064C146.589 55.3647 146.145 55.5439 145.702 55.5439C145.258 55.5439 144.903 55.3647 144.636 55.096Z" fill="#DA291C"/>
<path d="M148.898 51.2441H148.188V50.6171H148.898V49.363H149.608V50.6171H150.762V51.2441H149.608V54.2897C149.608 54.7376 149.785 54.8272 150.052 54.8272C150.318 54.8272 150.495 54.7376 150.673 54.5585L150.85 55.1855C150.584 55.3647 150.229 55.4542 149.874 55.4542C149.164 55.4542 148.898 55.0959 148.898 54.3793V51.2441Z" fill="#DA291C"/>
<path d="M151.117 52.8565C151.028 51.9608 151.472 51.065 152.182 50.6171C152.448 50.438 152.803 50.3484 153.07 50.3484C153.868 50.3484 154.579 50.8858 154.845 51.692C154.934 52.0503 155.022 52.4086 155.022 52.8565H151.827C151.827 54.021 152.359 54.7376 153.336 54.7376C153.868 54.7376 154.312 54.5585 154.667 54.2002L154.845 54.8272C154.579 55.0959 154.135 55.2751 153.78 55.2751C153.602 55.2751 153.425 55.3647 153.247 55.3647C152.004 55.4543 151.117 54.5585 151.117 52.8565Z" fill="#DA291C"/>
<path d="M156.531 55.2751H155.821V50.6172H156.443L156.531 51.065C156.798 50.7067 157.242 50.5276 157.685 50.5276C157.863 50.5276 157.952 50.5276 158.04 50.6172V51.2442C157.952 51.2442 157.774 51.1546 157.685 51.1546C157.242 51.2442 156.886 51.4234 156.531 51.6921V55.2751Z" fill="#DA291C"/>
<path d="M160.349 55.2751V50.6171H161.059V55.2751H160.349ZM160.349 49.2734C160.349 49.0047 160.526 48.8256 160.792 48.8256C161.059 48.8256 161.236 49.0047 161.236 49.1839V49.2734C161.236 49.5422 161.059 49.7213 160.792 49.8109C160.437 49.8109 160.349 49.6318 160.349 49.2734Z" fill="#DA291C"/>
<path d="M162.213 54.2898C162.568 54.6481 163.011 54.8272 163.544 54.8272C164.165 54.8272 164.432 54.5585 164.432 54.1106C164.432 53.7523 164.077 53.4836 163.278 53.1253C162.39 52.767 162.124 52.4087 162.124 51.7816C162.124 51.065 162.745 50.438 163.455 50.438H163.544C164.077 50.438 164.609 50.6171 165.053 50.9754L164.787 51.5129C164.432 51.2442 164.077 51.065 163.633 51.065C163.1 51.065 162.834 51.3338 162.834 51.6921C162.834 51.9608 163.189 52.2295 163.899 52.5878C164.52 52.8566 165.053 53.2149 165.053 54.0211C165.053 54.4689 164.876 54.9168 164.432 55.1855C164.165 55.3647 163.81 55.4543 163.455 55.4543C163.1 55.4543 162.656 55.3647 162.301 55.1855C162.213 55.1855 162.124 55.096 162.035 55.0064L161.946 54.9168L162.213 54.2898Z" fill="#DA291C"/>
<path d="M167.538 48.7361H168.248V54.2003C168.248 54.6481 168.337 54.8273 168.603 54.8273C168.781 54.8273 168.87 54.7377 169.047 54.7377L169.225 55.2752C168.958 55.3647 168.781 55.4543 168.515 55.4543C167.716 55.4543 167.538 55.096 167.538 54.1107V48.7361Z" fill="#DA291C"/>
<path d="M169.758 55.2751V50.6171H170.468V55.2751H169.758ZM169.758 49.2734C169.758 49.0047 169.935 48.8256 170.202 48.8256C170.468 48.8256 170.645 49.0047 170.645 49.1839V49.2734C170.645 49.5422 170.468 49.7213 170.202 49.8109C169.847 49.8109 169.758 49.6318 169.758 49.2734Z" fill="#DA291C"/>
<path d="M172.509 51.2442V55.2751H171.799V51.2442H171.089V50.6171H171.799V50.2588C171.71 49.811 171.888 49.2735 172.243 48.9152C172.509 48.6465 172.775 48.5569 173.13 48.5569C173.397 48.5569 173.663 48.6465 173.929 48.6465L173.841 49.2735C173.663 49.1839 173.397 49.0943 173.13 49.1839C172.598 49.1839 172.42 49.5422 172.42 50.2588V50.6171H173.486V51.2442H172.509Z" fill="#DA291C"/>
<path d="M173.751 52.8565C173.663 51.9608 174.107 51.065 174.817 50.6171C175.083 50.438 175.438 50.3484 175.704 50.3484C176.503 50.3484 177.213 50.8858 177.48 51.692C177.568 52.0503 177.657 52.4086 177.657 52.8565H174.462C174.462 54.021 174.994 54.7376 175.971 54.7376C176.503 54.7376 176.947 54.5585 177.302 54.2002L177.48 54.8272C177.213 55.0959 176.77 55.2751 176.414 55.2751C176.237 55.2751 176.059 55.3647 175.882 55.3647C174.639 55.4543 173.751 54.5585 173.751 52.8565Z" fill="#DA291C"/>
<path d="M187.979 20.1163V22.2662H188.511V20.1163H189.221V19.6685H187.18V20.1163H187.979Z" fill="#DA291C"/>
<path d="M190.996 22.3558L191.44 20.1163V22.3558H191.973V19.6685H191.263L190.819 21.7287L190.375 19.6685H189.576V22.2662H190.02V20.1163L190.464 22.3558H190.996Z" fill="#DA291C"/>
</g>
<defs>
<clipPath id="clip0_2336_3265">
<rect width="192" height="55" fill="white" transform="translate(0 0.5)"/>
</clipPath>
</defs>
</svg>
