<svg width="24" height="24" viewBox="0 0 24 24" fill="none" xmlns="http://www.w3.org/2000/svg">
<path opacity="0.4" d="M21.9703 12C21.9703 14.94 20.6903 17.6 18.6503 19.41C16.8903 21.01 14.5603 21.97 12.0003 21.97C6.50027 21.97 2.03027 17.5 2.03027 12C2.03027 6.50003 6.50027 2.03003 12.0003 2.03003C14.5603 2.03003 16.8903 2.99003 18.6503 4.59003C20.6903 6.40003 21.9703 9.06003 21.9703 12Z" fill="#374151"/>
<path d="M11.9703 16.39C11.9503 18.04 10.7203 18.44 9.57027 17.98C7.20027 17.03 5.53027 14.71 5.53027 12C5.53027 9.28999 7.20027 6.97 9.57027 6.01C10.7203 5.55 11.9503 5.95999 11.9703 7.59999V16.39Z" fill="#374151"/>
</svg>
