<svg width="20" height="22" viewBox="0 0 20 22" fill="none" xmlns="http://www.w3.org/2000/svg">
<path opacity="0.5" d="M16 17.86H15.24C14.44 17.86 13.68 18.17 13.12 18.73L11.41 20.42C10.63 21.19 9.36 21.19 8.58 20.42L6.87 18.73C6.31 18.17 5.54 17.86 4.75 17.86H4C2.34 17.86 1 16.53 1 14.89V3.98001C1 2.34001 2.34 1.01001 4 1.01001H16C17.66 1.01001 19 2.34001 19 3.98001V14.89C19 16.52 17.66 17.86 16 17.86Z" fill="white" stroke="white" stroke-width="1.5" stroke-miterlimit="10" stroke-linecap="round" stroke-linejoin="round"/>
<path d="M5 8.1601C5 7.2301 5.76 6.4701 6.69 6.4701C7.62 6.4701 8.38 7.2301 8.38 8.1601C8.38 10.0401 5.71 10.2401 5.12 12.0301C5 12.4001 5.31 12.7701 5.7 12.7701H8.38M14.04 12.7601V7.0501C14.0405 6.92375 13.9998 6.80068 13.924 6.6996C13.8482 6.59851 13.7414 6.52495 13.62 6.4901C13.4977 6.45556 13.3676 6.46122 13.2488 6.50622C13.1299 6.55123 13.0287 6.63322 12.96 6.7401C12.24 7.9001 11.46 9.2201 10.78 10.3801C10.67 10.5701 10.67 10.8201 10.78 11.0101C10.89 11.2001 11.1 11.3201 11.33 11.3201H15" stroke="white" stroke-width="1.5" stroke-linecap="round" stroke-linejoin="round"/>
</svg>
